%FSAX25Y25*%
%MOIN*%
G70*
G01*
G75*
G04 Layer_Color=16711935*
%ADD10C,0.05000*%
%ADD11R,0.02165X0.02362*%
%ADD12R,0.05906X0.01181*%
%ADD13R,0.01181X0.05906*%
%ADD14R,0.02362X0.02165*%
%ADD15R,0.04528X0.05512*%
%ADD16R,0.03740X0.03740*%
%ADD17R,0.02165X0.05709*%
%ADD18R,0.02165X0.05709*%
%ADD19R,0.04331X0.02559*%
%ADD20R,0.05118X0.05906*%
%ADD21R,0.02165X0.05709*%
%ADD22R,0.11024X0.02953*%
G04:AMPARAMS|DCode=23|XSize=31.5mil|YSize=51.18mil|CornerRadius=7.87mil|HoleSize=0mil|Usage=FLASHONLY|Rotation=90.000|XOffset=0mil|YOffset=0mil|HoleType=Round|Shape=RoundedRectangle|*
%AMROUNDEDRECTD23*
21,1,0.03150,0.03543,0,0,90.0*
21,1,0.01575,0.05118,0,0,90.0*
1,1,0.01575,0.01772,0.00787*
1,1,0.01575,0.01772,-0.00787*
1,1,0.01575,-0.01772,-0.00787*
1,1,0.01575,-0.01772,0.00787*
%
%ADD23ROUNDEDRECTD23*%
%ADD24R,0.11811X0.08268*%
%ADD25R,0.03150X0.03150*%
%ADD26C,0.01000*%
%ADD27C,0.02000*%
%ADD28C,0.01500*%
%ADD29C,0.01800*%
%ADD30C,0.03000*%
%ADD31C,0.02362*%
%ADD32C,0.03150*%
%ADD33C,0.03500*%
%ADD34R,0.06890X0.03347*%
G04:AMPARAMS|DCode=35|XSize=68.9mil|YSize=33.47mil|CornerRadius=8.37mil|HoleSize=0mil|Usage=FLASHONLY|Rotation=180.000|XOffset=0mil|YOffset=0mil|HoleType=Round|Shape=RoundedRectangle|*
%AMROUNDEDRECTD35*
21,1,0.06890,0.01673,0,0,180.0*
21,1,0.05217,0.03347,0,0,180.0*
1,1,0.01673,-0.02608,0.00837*
1,1,0.01673,0.02608,0.00837*
1,1,0.01673,0.02608,-0.00837*
1,1,0.01673,-0.02608,-0.00837*
%
%ADD35ROUNDEDRECTD35*%
%ADD36R,0.09843X0.07874*%
%ADD37R,0.09055X0.01969*%
G04:AMPARAMS|DCode=38|XSize=19.69mil|YSize=90.55mil|CornerRadius=4.92mil|HoleSize=0mil|Usage=FLASHONLY|Rotation=270.000|XOffset=0mil|YOffset=0mil|HoleType=Round|Shape=RoundedRectangle|*
%AMROUNDEDRECTD38*
21,1,0.01969,0.08071,0,0,270.0*
21,1,0.00984,0.09055,0,0,270.0*
1,1,0.00984,-0.04035,-0.00492*
1,1,0.00984,-0.04035,0.00492*
1,1,0.00984,0.04035,0.00492*
1,1,0.00984,0.04035,-0.00492*
%
%ADD38ROUNDEDRECTD38*%
%ADD39R,0.06102X0.06299*%
%ADD40R,0.11024X0.05512*%
%ADD41R,0.11811X0.05512*%
%ADD42R,0.07480X0.05512*%
%ADD43R,0.11024X0.06102*%
G04:AMPARAMS|DCode=44|XSize=61.02mil|YSize=82.68mil|CornerRadius=15.26mil|HoleSize=0mil|Usage=FLASHONLY|Rotation=90.000|XOffset=0mil|YOffset=0mil|HoleType=Round|Shape=RoundedRectangle|*
%AMROUNDEDRECTD44*
21,1,0.06102,0.05217,0,0,90.0*
21,1,0.03051,0.08268,0,0,90.0*
1,1,0.03051,0.02608,0.01526*
1,1,0.03051,0.02608,-0.01526*
1,1,0.03051,-0.02608,-0.01526*
1,1,0.03051,-0.02608,0.01526*
%
%ADD44ROUNDEDRECTD44*%
G04:AMPARAMS|DCode=45|XSize=31.5mil|YSize=62.99mil|CornerRadius=7.87mil|HoleSize=0mil|Usage=FLASHONLY|Rotation=90.000|XOffset=0mil|YOffset=0mil|HoleType=Round|Shape=RoundedRectangle|*
%AMROUNDEDRECTD45*
21,1,0.03150,0.04724,0,0,90.0*
21,1,0.01575,0.06299,0,0,90.0*
1,1,0.01575,0.02362,0.00787*
1,1,0.01575,0.02362,-0.00787*
1,1,0.01575,-0.02362,-0.00787*
1,1,0.01575,-0.02362,0.00787*
%
%ADD45ROUNDEDRECTD45*%
%ADD46R,0.06299X0.03150*%
G04:AMPARAMS|DCode=47|XSize=31.5mil|YSize=51.18mil|CornerRadius=7.87mil|HoleSize=0mil|Usage=FLASHONLY|Rotation=180.000|XOffset=0mil|YOffset=0mil|HoleType=Round|Shape=RoundedRectangle|*
%AMROUNDEDRECTD47*
21,1,0.03150,0.03543,0,0,180.0*
21,1,0.01575,0.05118,0,0,180.0*
1,1,0.01575,-0.00787,0.01772*
1,1,0.01575,0.00787,0.01772*
1,1,0.01575,0.00787,-0.01772*
1,1,0.01575,-0.00787,-0.01772*
%
%ADD47ROUNDEDRECTD47*%
%ADD48R,0.08268X0.11811*%
%ADD49R,0.03150X0.05118*%
%ADD50R,0.05118X0.03150*%
%ADD51R,0.14800X0.13400*%
%ADD52R,0.01955X0.02104*%
%ADD53C,0.00787*%
%ADD54C,0.00984*%
%ADD55C,0.00984*%
%ADD56C,0.00500*%
%ADD57C,0.00700*%
%ADD58C,0.05800*%
%ADD59R,0.02965X0.03162*%
%ADD60R,0.06706X0.01981*%
%ADD61R,0.01981X0.06706*%
%ADD62R,0.03162X0.02965*%
%ADD63R,0.05328X0.06312*%
%ADD64R,0.04540X0.04540*%
%ADD65R,0.02965X0.06509*%
%ADD66R,0.02965X0.06509*%
%ADD67R,0.05131X0.03359*%
%ADD68R,0.05918X0.06706*%
%ADD69R,0.02965X0.06509*%
G04:AMPARAMS|DCode=70|XSize=39.5mil|YSize=59.18mil|CornerRadius=9.87mil|HoleSize=0mil|Usage=FLASHONLY|Rotation=90.000|XOffset=0mil|YOffset=0mil|HoleType=Round|Shape=RoundedRectangle|*
%AMROUNDEDRECTD70*
21,1,0.03950,0.03943,0,0,90.0*
21,1,0.01975,0.05918,0,0,90.0*
1,1,0.01975,0.01972,0.00987*
1,1,0.01975,0.01972,-0.00987*
1,1,0.01975,-0.01972,-0.00987*
1,1,0.01975,-0.01972,0.00987*
%
%ADD70ROUNDEDRECTD70*%
%ADD71R,0.12611X0.09068*%
%ADD72R,0.03950X0.03950*%
%ADD73C,0.03162*%
%ADD74C,0.04300*%
%ADD75C,0.03950*%
%ADD76R,0.07690X0.04147*%
G04:AMPARAMS|DCode=77|XSize=76.9mil|YSize=41.47mil|CornerRadius=10.37mil|HoleSize=0mil|Usage=FLASHONLY|Rotation=180.000|XOffset=0mil|YOffset=0mil|HoleType=Round|Shape=RoundedRectangle|*
%AMROUNDEDRECTD77*
21,1,0.07690,0.02073,0,0,180.0*
21,1,0.05617,0.04147,0,0,180.0*
1,1,0.02073,-0.02808,0.01037*
1,1,0.02073,0.02808,0.01037*
1,1,0.02073,0.02808,-0.01037*
1,1,0.02073,-0.02808,-0.01037*
%
%ADD77ROUNDEDRECTD77*%
%ADD78R,0.10642X0.08674*%
%ADD79R,0.09855X0.02769*%
G04:AMPARAMS|DCode=80|XSize=27.69mil|YSize=98.55mil|CornerRadius=6.92mil|HoleSize=0mil|Usage=FLASHONLY|Rotation=270.000|XOffset=0mil|YOffset=0mil|HoleType=Round|Shape=RoundedRectangle|*
%AMROUNDEDRECTD80*
21,1,0.02769,0.08471,0,0,270.0*
21,1,0.01384,0.09855,0,0,270.0*
1,1,0.01384,-0.04235,-0.00692*
1,1,0.01384,-0.04235,0.00692*
1,1,0.01384,0.04235,0.00692*
1,1,0.01384,0.04235,-0.00692*
%
%ADD80ROUNDEDRECTD80*%
%ADD81R,0.06902X0.07099*%
%ADD82R,0.11824X0.06312*%
%ADD83R,0.12611X0.06312*%
%ADD84R,0.08280X0.06312*%
%ADD85R,0.11824X0.06902*%
G04:AMPARAMS|DCode=86|XSize=69.02mil|YSize=90.68mil|CornerRadius=17.26mil|HoleSize=0mil|Usage=FLASHONLY|Rotation=90.000|XOffset=0mil|YOffset=0mil|HoleType=Round|Shape=RoundedRectangle|*
%AMROUNDEDRECTD86*
21,1,0.06902,0.05617,0,0,90.0*
21,1,0.03451,0.09068,0,0,90.0*
1,1,0.03451,0.02808,0.01726*
1,1,0.03451,0.02808,-0.01726*
1,1,0.03451,-0.02808,-0.01726*
1,1,0.03451,-0.02808,0.01726*
%
%ADD86ROUNDEDRECTD86*%
G04:AMPARAMS|DCode=87|XSize=39.5mil|YSize=70.99mil|CornerRadius=9.87mil|HoleSize=0mil|Usage=FLASHONLY|Rotation=90.000|XOffset=0mil|YOffset=0mil|HoleType=Round|Shape=RoundedRectangle|*
%AMROUNDEDRECTD87*
21,1,0.03950,0.05124,0,0,90.0*
21,1,0.01975,0.07099,0,0,90.0*
1,1,0.01975,0.02562,0.00987*
1,1,0.01975,0.02562,-0.00987*
1,1,0.01975,-0.02562,-0.00987*
1,1,0.01975,-0.02562,0.00987*
%
%ADD87ROUNDEDRECTD87*%
%ADD88R,0.07099X0.03950*%
G04:AMPARAMS|DCode=89|XSize=39.5mil|YSize=59.18mil|CornerRadius=9.87mil|HoleSize=0mil|Usage=FLASHONLY|Rotation=180.000|XOffset=0mil|YOffset=0mil|HoleType=Round|Shape=RoundedRectangle|*
%AMROUNDEDRECTD89*
21,1,0.03950,0.03943,0,0,180.0*
21,1,0.01975,0.05918,0,0,180.0*
1,1,0.01975,-0.00987,0.01972*
1,1,0.01975,0.00987,0.01972*
1,1,0.01975,0.00987,-0.01972*
1,1,0.01975,-0.00987,-0.01972*
%
%ADD89ROUNDEDRECTD89*%
%ADD90R,0.09068X0.12611*%
%ADD91R,0.03950X0.05918*%
%ADD92R,0.05918X0.03950*%
D59*
X0376800Y0299373D02*
D03*
Y0296027D02*
D03*
D62*
X0384927Y0278500D02*
D03*
X0388273D02*
D03*
X0385027Y0281700D02*
D03*
X0388373D02*
D03*
D64*
X0381400Y0296046D02*
D03*
Y0301754D02*
D03*
D70*
X0303213Y0250000D02*
D03*
Y0254921D02*
D03*
D71*
X0292387Y0235039D02*
D03*
Y0264961D02*
D03*
D73*
X0405331Y0287161D02*
D03*
Y0269839D02*
D03*
D74*
X0313500Y0255100D02*
D03*
D75*
X0310800Y0262673D02*
D03*
D76*
X0313400Y0242807D02*
D03*
D77*
Y0256193D02*
D03*
D78*
X0395488Y0260980D02*
D03*
Y0296020D02*
D03*
X0417142D02*
D03*
Y0260980D02*
D03*
D79*
X0395094Y0272201D02*
D03*
D80*
Y0275351D02*
D03*
Y0278500D02*
D03*
Y0281650D02*
D03*
Y0284799D02*
D03*
D81*
X0370040Y0272536D02*
D03*
D82*
X0365611Y0259308D02*
D03*
D83*
X0329194D02*
D03*
D84*
X0311871Y0319544D02*
D03*
X0310240Y0262064D02*
D03*
D85*
X0360887Y0319249D02*
D03*
D86*
X0330572D02*
D03*
D87*
X0370729Y0311119D02*
D03*
Y0306788D02*
D03*
Y0298127D02*
D03*
Y0293796D02*
D03*
Y0289465D02*
D03*
Y0285135D02*
D03*
Y0280804D02*
D03*
D88*
Y0302457D02*
D03*
D89*
X0376579Y0248802D02*
D03*
X0386421D02*
D03*
X0391342D02*
D03*
X0381500D02*
D03*
X0328979D02*
D03*
X0338821D02*
D03*
X0343742D02*
D03*
X0333900D02*
D03*
X0398379Y0305587D02*
D03*
X0403300D02*
D03*
X0408221D02*
D03*
D90*
X0366461Y0237975D02*
D03*
X0406303D02*
D03*
X0318861D02*
D03*
X0358703D02*
D03*
X0388339Y0316413D02*
D03*
X0418261D02*
D03*
D91*
X0396264Y0248802D02*
D03*
X0348664D02*
D03*
D92*
X0303213Y0245079D02*
D03*
M02*
