%FSAX25Y25*%
%MOIN*%
G70*
G01*
G75*
G04 Layer_Color=8388736*
%ADD10C,0.05000*%
%ADD11R,0.02165X0.02362*%
%ADD12R,0.05906X0.01181*%
%ADD13R,0.01181X0.05906*%
%ADD14R,0.02362X0.02165*%
%ADD15R,0.04528X0.05512*%
%ADD16R,0.03740X0.03740*%
%ADD17R,0.02165X0.05709*%
%ADD18R,0.02165X0.05709*%
%ADD19R,0.04331X0.02559*%
%ADD20R,0.05118X0.05906*%
%ADD21R,0.02165X0.05709*%
%ADD22R,0.11024X0.02953*%
G04:AMPARAMS|DCode=23|XSize=31.5mil|YSize=51.18mil|CornerRadius=7.87mil|HoleSize=0mil|Usage=FLASHONLY|Rotation=90.000|XOffset=0mil|YOffset=0mil|HoleType=Round|Shape=RoundedRectangle|*
%AMROUNDEDRECTD23*
21,1,0.03150,0.03543,0,0,90.0*
21,1,0.01575,0.05118,0,0,90.0*
1,1,0.01575,0.01772,0.00787*
1,1,0.01575,0.01772,-0.00787*
1,1,0.01575,-0.01772,-0.00787*
1,1,0.01575,-0.01772,0.00787*
%
%ADD23ROUNDEDRECTD23*%
%ADD24R,0.11811X0.08268*%
%ADD25R,0.03150X0.03150*%
%ADD26C,0.01000*%
%ADD27C,0.02000*%
%ADD28C,0.01500*%
%ADD29C,0.01800*%
%ADD30C,0.03000*%
%ADD31C,0.02362*%
%ADD32C,0.03150*%
%ADD33C,0.03500*%
%ADD34R,0.06890X0.03347*%
G04:AMPARAMS|DCode=35|XSize=68.9mil|YSize=33.47mil|CornerRadius=8.37mil|HoleSize=0mil|Usage=FLASHONLY|Rotation=180.000|XOffset=0mil|YOffset=0mil|HoleType=Round|Shape=RoundedRectangle|*
%AMROUNDEDRECTD35*
21,1,0.06890,0.01673,0,0,180.0*
21,1,0.05217,0.03347,0,0,180.0*
1,1,0.01673,-0.02608,0.00837*
1,1,0.01673,0.02608,0.00837*
1,1,0.01673,0.02608,-0.00837*
1,1,0.01673,-0.02608,-0.00837*
%
%ADD35ROUNDEDRECTD35*%
%ADD36R,0.09843X0.07874*%
%ADD37R,0.09055X0.01969*%
G04:AMPARAMS|DCode=38|XSize=19.69mil|YSize=90.55mil|CornerRadius=4.92mil|HoleSize=0mil|Usage=FLASHONLY|Rotation=270.000|XOffset=0mil|YOffset=0mil|HoleType=Round|Shape=RoundedRectangle|*
%AMROUNDEDRECTD38*
21,1,0.01969,0.08071,0,0,270.0*
21,1,0.00984,0.09055,0,0,270.0*
1,1,0.00984,-0.04035,-0.00492*
1,1,0.00984,-0.04035,0.00492*
1,1,0.00984,0.04035,0.00492*
1,1,0.00984,0.04035,-0.00492*
%
%ADD38ROUNDEDRECTD38*%
%ADD39R,0.06102X0.06299*%
%ADD40R,0.11024X0.05512*%
%ADD41R,0.11811X0.05512*%
%ADD42R,0.07480X0.05512*%
%ADD43R,0.11024X0.06102*%
G04:AMPARAMS|DCode=44|XSize=61.02mil|YSize=82.68mil|CornerRadius=15.26mil|HoleSize=0mil|Usage=FLASHONLY|Rotation=90.000|XOffset=0mil|YOffset=0mil|HoleType=Round|Shape=RoundedRectangle|*
%AMROUNDEDRECTD44*
21,1,0.06102,0.05217,0,0,90.0*
21,1,0.03051,0.08268,0,0,90.0*
1,1,0.03051,0.02608,0.01526*
1,1,0.03051,0.02608,-0.01526*
1,1,0.03051,-0.02608,-0.01526*
1,1,0.03051,-0.02608,0.01526*
%
%ADD44ROUNDEDRECTD44*%
G04:AMPARAMS|DCode=45|XSize=31.5mil|YSize=62.99mil|CornerRadius=7.87mil|HoleSize=0mil|Usage=FLASHONLY|Rotation=90.000|XOffset=0mil|YOffset=0mil|HoleType=Round|Shape=RoundedRectangle|*
%AMROUNDEDRECTD45*
21,1,0.03150,0.04724,0,0,90.0*
21,1,0.01575,0.06299,0,0,90.0*
1,1,0.01575,0.02362,0.00787*
1,1,0.01575,0.02362,-0.00787*
1,1,0.01575,-0.02362,-0.00787*
1,1,0.01575,-0.02362,0.00787*
%
%ADD45ROUNDEDRECTD45*%
%ADD46R,0.06299X0.03150*%
G04:AMPARAMS|DCode=47|XSize=31.5mil|YSize=51.18mil|CornerRadius=7.87mil|HoleSize=0mil|Usage=FLASHONLY|Rotation=180.000|XOffset=0mil|YOffset=0mil|HoleType=Round|Shape=RoundedRectangle|*
%AMROUNDEDRECTD47*
21,1,0.03150,0.03543,0,0,180.0*
21,1,0.01575,0.05118,0,0,180.0*
1,1,0.01575,-0.00787,0.01772*
1,1,0.01575,0.00787,0.01772*
1,1,0.01575,0.00787,-0.01772*
1,1,0.01575,-0.00787,-0.01772*
%
%ADD47ROUNDEDRECTD47*%
%ADD48R,0.08268X0.11811*%
%ADD49R,0.03150X0.05118*%
%ADD50R,0.05118X0.03150*%
%ADD51R,0.14800X0.13400*%
%ADD52R,0.01955X0.02104*%
%ADD53C,0.00787*%
%ADD54C,0.00984*%
%ADD55C,0.00984*%
%ADD56C,0.00500*%
%ADD57C,0.00700*%
%ADD58C,0.05800*%
%ADD59R,0.02965X0.03162*%
%ADD60R,0.06706X0.01981*%
%ADD61R,0.01981X0.06706*%
%ADD62R,0.03162X0.02965*%
%ADD63R,0.05328X0.06312*%
%ADD64R,0.04540X0.04540*%
%ADD65R,0.02965X0.06509*%
%ADD66R,0.02965X0.06509*%
%ADD67R,0.05131X0.03359*%
%ADD68R,0.05918X0.06706*%
%ADD69R,0.02965X0.06509*%
G04:AMPARAMS|DCode=70|XSize=39.5mil|YSize=59.18mil|CornerRadius=9.87mil|HoleSize=0mil|Usage=FLASHONLY|Rotation=90.000|XOffset=0mil|YOffset=0mil|HoleType=Round|Shape=RoundedRectangle|*
%AMROUNDEDRECTD70*
21,1,0.03950,0.03943,0,0,90.0*
21,1,0.01975,0.05918,0,0,90.0*
1,1,0.01975,0.01972,0.00987*
1,1,0.01975,0.01972,-0.00987*
1,1,0.01975,-0.01972,-0.00987*
1,1,0.01975,-0.01972,0.00987*
%
%ADD70ROUNDEDRECTD70*%
%ADD71R,0.12611X0.09068*%
%ADD72R,0.03950X0.03950*%
%ADD73C,0.03162*%
%ADD74C,0.04300*%
%ADD75C,0.03950*%
D22*
X0312872Y0297000D02*
D03*
X0296888D02*
D03*
X0312872Y0302000D02*
D03*
X0296888D02*
D03*
X0312872Y0307000D02*
D03*
X0296888D02*
D03*
X0312872Y0312000D02*
D03*
X0296888D02*
D03*
X0312872Y0317000D02*
D03*
X0296888D02*
D03*
D58*
X0384600Y0314700D02*
D03*
X0371500D02*
D03*
X0358400D02*
D03*
X0345300D02*
D03*
D59*
X0314300Y0262273D02*
D03*
Y0258927D02*
D03*
X0290100Y0265727D02*
D03*
Y0269073D02*
D03*
X0294900Y0265727D02*
D03*
Y0269073D02*
D03*
X0292400Y0258627D02*
D03*
Y0261973D02*
D03*
X0297200Y0258627D02*
D03*
Y0261973D02*
D03*
X0306100Y0255627D02*
D03*
Y0258973D02*
D03*
X0309600D02*
D03*
Y0255627D02*
D03*
X0345100Y0298227D02*
D03*
Y0301573D02*
D03*
X0348000Y0298227D02*
D03*
Y0301573D02*
D03*
X0350900Y0298227D02*
D03*
Y0301573D02*
D03*
X0353800Y0298227D02*
D03*
Y0301573D02*
D03*
X0350400Y0236927D02*
D03*
Y0240273D02*
D03*
X0408500Y0306827D02*
D03*
Y0310173D02*
D03*
D60*
X0319059Y0271453D02*
D03*
X0363941Y0275390D02*
D03*
Y0277358D02*
D03*
Y0271453D02*
D03*
X0319059Y0269484D02*
D03*
X0363941Y0267516D02*
D03*
Y0253736D02*
D03*
Y0261610D02*
D03*
X0319059Y0279327D02*
D03*
Y0277358D02*
D03*
Y0283264D02*
D03*
Y0261610D02*
D03*
Y0259642D02*
D03*
Y0265547D02*
D03*
Y0263579D02*
D03*
Y0273421D02*
D03*
Y0255705D02*
D03*
Y0267516D02*
D03*
X0363941Y0269484D02*
D03*
X0319059Y0257673D02*
D03*
X0363941Y0283264D02*
D03*
X0319059Y0275390D02*
D03*
Y0281295D02*
D03*
Y0253736D02*
D03*
X0363941Y0279327D02*
D03*
Y0281295D02*
D03*
Y0255705D02*
D03*
Y0259642D02*
D03*
Y0257673D02*
D03*
Y0263579D02*
D03*
Y0265547D02*
D03*
Y0273421D02*
D03*
D61*
X0330673Y0290941D02*
D03*
X0334610D02*
D03*
X0332642D02*
D03*
X0338547Y0246059D02*
D03*
X0332642D02*
D03*
X0330673D02*
D03*
X0344453Y0290941D02*
D03*
Y0246059D02*
D03*
X0352327D02*
D03*
X0348390D02*
D03*
Y0290941D02*
D03*
X0350358Y0246059D02*
D03*
X0336579D02*
D03*
X0340516D02*
D03*
X0342484D02*
D03*
X0346421D02*
D03*
X0354295D02*
D03*
X0356264D02*
D03*
X0354295Y0290941D02*
D03*
X0350358D02*
D03*
X0352327D02*
D03*
X0340516D02*
D03*
X0342484D02*
D03*
X0326736D02*
D03*
X0334610Y0246059D02*
D03*
X0346421Y0290941D02*
D03*
X0336579D02*
D03*
X0338547D02*
D03*
X0356264D02*
D03*
X0328705Y0246059D02*
D03*
X0326736D02*
D03*
X0328705Y0290941D02*
D03*
D62*
X0362173Y0241300D02*
D03*
X0358827D02*
D03*
X0314127Y0251000D02*
D03*
X0317473D02*
D03*
X0312273Y0266200D02*
D03*
X0308927D02*
D03*
X0308173Y0285500D02*
D03*
X0304827D02*
D03*
X0335873Y0296100D02*
D03*
X0332527D02*
D03*
X0326027D02*
D03*
X0329373D02*
D03*
X0369727Y0281300D02*
D03*
X0373073D02*
D03*
X0371127Y0265800D02*
D03*
X0374473D02*
D03*
X0371127Y0268800D02*
D03*
X0374473D02*
D03*
X0395073Y0255700D02*
D03*
X0391727D02*
D03*
X0393573Y0235800D02*
D03*
X0390227D02*
D03*
X0362173Y0244200D02*
D03*
X0358827D02*
D03*
X0330173Y0240200D02*
D03*
X0326827D02*
D03*
X0398873Y0318800D02*
D03*
X0395527D02*
D03*
D63*
X0312188Y0271094D02*
D03*
Y0279756D02*
D03*
X0305889D02*
D03*
Y0271094D02*
D03*
D64*
X0365700Y0313246D02*
D03*
Y0318954D02*
D03*
D65*
X0391560Y0260068D02*
D03*
X0390060Y0240168D02*
D03*
D66*
X0395300Y0260068D02*
D03*
X0399040D02*
D03*
Y0268532D02*
D03*
X0391560D02*
D03*
X0393800Y0240168D02*
D03*
X0397540D02*
D03*
Y0248632D02*
D03*
X0390060D02*
D03*
D67*
X0404600Y0306700D02*
D03*
Y0310440D02*
D03*
Y0314180D02*
D03*
X0395151D02*
D03*
Y0306700D02*
D03*
D68*
X0402640Y0299200D02*
D03*
X0395160D02*
D03*
D69*
X0413900Y0291174D02*
D03*
Y0300426D02*
D03*
D70*
X0405598Y0264821D02*
D03*
Y0254979D02*
D03*
Y0250058D02*
D03*
Y0245136D02*
D03*
Y0259900D02*
D03*
D71*
X0416425Y0274939D02*
D03*
Y0235097D02*
D03*
D72*
X0290150Y0241848D02*
D03*
Y0235352D02*
D03*
X0294433D02*
D03*
Y0241848D02*
D03*
X0298717D02*
D03*
Y0235352D02*
D03*
X0303000D02*
D03*
Y0241848D02*
D03*
D73*
X0405331Y0287161D02*
D03*
Y0269839D02*
D03*
D74*
X0313500Y0255100D02*
D03*
D75*
X0310800Y0262673D02*
D03*
M02*
