%FSAX25Y25*%
%MOIN*%
G70*
G01*
G75*
G04 Layer_Physical_Order=2*
G04 Layer_Color=16711680*
%ADD10C,0.05000*%
%ADD11R,0.02165X0.02362*%
%ADD12R,0.05906X0.01181*%
%ADD13R,0.01181X0.05906*%
%ADD14R,0.02362X0.02165*%
%ADD15R,0.04528X0.05512*%
%ADD16R,0.03740X0.03740*%
%ADD17R,0.02165X0.05709*%
%ADD18R,0.02165X0.05709*%
%ADD19R,0.04331X0.02559*%
%ADD20R,0.05118X0.05906*%
%ADD21R,0.02165X0.05709*%
%ADD22R,0.11024X0.02953*%
G04:AMPARAMS|DCode=23|XSize=31.5mil|YSize=51.18mil|CornerRadius=7.87mil|HoleSize=0mil|Usage=FLASHONLY|Rotation=90.000|XOffset=0mil|YOffset=0mil|HoleType=Round|Shape=RoundedRectangle|*
%AMROUNDEDRECTD23*
21,1,0.03150,0.03543,0,0,90.0*
21,1,0.01575,0.05118,0,0,90.0*
1,1,0.01575,0.01772,0.00787*
1,1,0.01575,0.01772,-0.00787*
1,1,0.01575,-0.01772,-0.00787*
1,1,0.01575,-0.01772,0.00787*
%
%ADD23ROUNDEDRECTD23*%
%ADD24R,0.11811X0.08268*%
%ADD25R,0.03150X0.03150*%
%ADD26C,0.01000*%
%ADD27C,0.02000*%
%ADD28C,0.01500*%
%ADD29C,0.01800*%
%ADD30C,0.03000*%
%ADD31C,0.02362*%
%ADD32C,0.03150*%
%ADD33C,0.03500*%
%ADD34R,0.06890X0.03347*%
G04:AMPARAMS|DCode=35|XSize=68.9mil|YSize=33.47mil|CornerRadius=8.37mil|HoleSize=0mil|Usage=FLASHONLY|Rotation=180.000|XOffset=0mil|YOffset=0mil|HoleType=Round|Shape=RoundedRectangle|*
%AMROUNDEDRECTD35*
21,1,0.06890,0.01673,0,0,180.0*
21,1,0.05217,0.03347,0,0,180.0*
1,1,0.01673,-0.02608,0.00837*
1,1,0.01673,0.02608,0.00837*
1,1,0.01673,0.02608,-0.00837*
1,1,0.01673,-0.02608,-0.00837*
%
%ADD35ROUNDEDRECTD35*%
%ADD36R,0.09843X0.07874*%
%ADD37R,0.09055X0.01969*%
G04:AMPARAMS|DCode=38|XSize=19.69mil|YSize=90.55mil|CornerRadius=4.92mil|HoleSize=0mil|Usage=FLASHONLY|Rotation=270.000|XOffset=0mil|YOffset=0mil|HoleType=Round|Shape=RoundedRectangle|*
%AMROUNDEDRECTD38*
21,1,0.01969,0.08071,0,0,270.0*
21,1,0.00984,0.09055,0,0,270.0*
1,1,0.00984,-0.04035,-0.00492*
1,1,0.00984,-0.04035,0.00492*
1,1,0.00984,0.04035,0.00492*
1,1,0.00984,0.04035,-0.00492*
%
%ADD38ROUNDEDRECTD38*%
%ADD39R,0.06102X0.06299*%
%ADD40R,0.11024X0.05512*%
%ADD41R,0.11811X0.05512*%
%ADD42R,0.07480X0.05512*%
%ADD43R,0.11024X0.06102*%
G04:AMPARAMS|DCode=44|XSize=61.02mil|YSize=82.68mil|CornerRadius=15.26mil|HoleSize=0mil|Usage=FLASHONLY|Rotation=90.000|XOffset=0mil|YOffset=0mil|HoleType=Round|Shape=RoundedRectangle|*
%AMROUNDEDRECTD44*
21,1,0.06102,0.05217,0,0,90.0*
21,1,0.03051,0.08268,0,0,90.0*
1,1,0.03051,0.02608,0.01526*
1,1,0.03051,0.02608,-0.01526*
1,1,0.03051,-0.02608,-0.01526*
1,1,0.03051,-0.02608,0.01526*
%
%ADD44ROUNDEDRECTD44*%
G04:AMPARAMS|DCode=45|XSize=31.5mil|YSize=62.99mil|CornerRadius=7.87mil|HoleSize=0mil|Usage=FLASHONLY|Rotation=90.000|XOffset=0mil|YOffset=0mil|HoleType=Round|Shape=RoundedRectangle|*
%AMROUNDEDRECTD45*
21,1,0.03150,0.04724,0,0,90.0*
21,1,0.01575,0.06299,0,0,90.0*
1,1,0.01575,0.02362,0.00787*
1,1,0.01575,0.02362,-0.00787*
1,1,0.01575,-0.02362,-0.00787*
1,1,0.01575,-0.02362,0.00787*
%
%ADD45ROUNDEDRECTD45*%
%ADD46R,0.06299X0.03150*%
G04:AMPARAMS|DCode=47|XSize=31.5mil|YSize=51.18mil|CornerRadius=7.87mil|HoleSize=0mil|Usage=FLASHONLY|Rotation=180.000|XOffset=0mil|YOffset=0mil|HoleType=Round|Shape=RoundedRectangle|*
%AMROUNDEDRECTD47*
21,1,0.03150,0.03543,0,0,180.0*
21,1,0.01575,0.05118,0,0,180.0*
1,1,0.01575,-0.00787,0.01772*
1,1,0.01575,0.00787,0.01772*
1,1,0.01575,0.00787,-0.01772*
1,1,0.01575,-0.00787,-0.01772*
%
%ADD47ROUNDEDRECTD47*%
%ADD48R,0.08268X0.11811*%
%ADD49R,0.03150X0.05118*%
%ADD50R,0.05118X0.03150*%
%ADD51R,0.14800X0.13400*%
%ADD52R,0.01955X0.02104*%
G36*
X0422369Y0230931D02*
X0286431D01*
Y0323269D01*
X0326312D01*
X0326545Y0322503D01*
X0326359Y0322379D01*
X0325867Y0321643D01*
X0325694Y0320774D01*
Y0317723D01*
X0325867Y0316855D01*
X0326359Y0316119D01*
X0327095Y0315627D01*
X0327963Y0315454D01*
X0333180D01*
X0334048Y0315627D01*
X0334785Y0316119D01*
X0335276Y0316855D01*
X0335449Y0317723D01*
Y0320774D01*
X0335276Y0321643D01*
X0334785Y0322379D01*
X0334599Y0322503D01*
X0334831Y0323269D01*
X0422369D01*
Y0230931D01*
D02*
G37*
%LPC*%
G36*
X0324313Y0269636D02*
X0323426Y0269460D01*
X0322673Y0268957D01*
X0322170Y0268204D01*
X0321994Y0267317D01*
X0322170Y0266429D01*
X0322673Y0265677D01*
X0322716Y0265246D01*
X0316056Y0258587D01*
X0316008Y0258596D01*
X0310792D01*
X0310192Y0258477D01*
X0309684Y0258137D01*
X0309344Y0257629D01*
X0309225Y0257030D01*
Y0255356D01*
X0309344Y0254757D01*
X0309684Y0254248D01*
X0310192Y0253909D01*
X0310792Y0253790D01*
X0311429D01*
X0311734Y0253334D01*
X0312544Y0252792D01*
X0313500Y0252602D01*
X0314456Y0252792D01*
X0315266Y0253334D01*
X0315571Y0253790D01*
X0316008D01*
X0316608Y0253909D01*
X0317116Y0254248D01*
X0317456Y0254757D01*
X0317575Y0255356D01*
Y0256645D01*
X0325265Y0264335D01*
X0325530Y0264732D01*
X0325530Y0264732D01*
X0325530Y0264732D01*
X0325623Y0265200D01*
Y0265456D01*
X0325953Y0265677D01*
X0326456Y0266429D01*
X0326633Y0267317D01*
X0326456Y0268204D01*
X0325953Y0268957D01*
X0325201Y0269460D01*
X0324313Y0269636D01*
D02*
G37*
G36*
X0405331Y0272359D02*
X0404366Y0272167D01*
X0403549Y0271621D01*
X0403003Y0270803D01*
X0402811Y0269839D01*
X0403003Y0268875D01*
X0403549Y0268057D01*
X0404366Y0267511D01*
X0405331Y0267319D01*
X0406295Y0267511D01*
X0407113Y0268057D01*
X0407659Y0268875D01*
X0407851Y0269839D01*
X0407659Y0270803D01*
X0407113Y0271621D01*
X0406295Y0272167D01*
X0405331Y0272359D01*
D02*
G37*
G36*
X0378800Y0261961D02*
X0377912Y0261785D01*
X0377160Y0261282D01*
X0376657Y0260529D01*
X0376481Y0259642D01*
X0376657Y0258754D01*
X0377160Y0258002D01*
X0377912Y0257499D01*
X0378800Y0257322D01*
X0379015Y0257365D01*
X0379608Y0256828D01*
X0379560Y0256340D01*
X0379057Y0255588D01*
X0378363Y0255726D01*
X0378188Y0255843D01*
X0377300Y0256019D01*
X0376412Y0255843D01*
X0375660Y0255340D01*
X0375157Y0254588D01*
X0374288Y0255043D01*
X0374288Y0255043D01*
X0374288Y0255043D01*
X0373400Y0255219D01*
X0372512Y0255043D01*
X0371760Y0254540D01*
X0371257Y0253788D01*
X0371081Y0252900D01*
X0371257Y0252012D01*
X0371760Y0251260D01*
X0372512Y0250757D01*
X0373400Y0250581D01*
X0373656Y0250632D01*
X0374275Y0250124D01*
Y0247030D01*
X0374390Y0246450D01*
X0374719Y0245958D01*
X0375211Y0245629D01*
X0375791Y0245513D01*
X0377366D01*
X0377946Y0245629D01*
X0378438Y0245958D01*
X0378639Y0246258D01*
X0379439D01*
X0379640Y0245958D01*
X0380132Y0245629D01*
X0380713Y0245513D01*
X0382287D01*
X0382868Y0245629D01*
X0383360Y0245958D01*
X0383561Y0246258D01*
X0384361D01*
X0384561Y0245958D01*
X0385053Y0245629D01*
X0385634Y0245513D01*
X0387209D01*
X0387789Y0245629D01*
X0388281Y0245958D01*
X0388482Y0246258D01*
X0389282D01*
X0389483Y0245958D01*
X0389975Y0245629D01*
X0390555Y0245513D01*
X0392130D01*
X0392710Y0245629D01*
X0393202Y0245958D01*
X0393531Y0246450D01*
X0393647Y0247030D01*
Y0250573D01*
X0393531Y0251154D01*
X0393202Y0251646D01*
X0392710Y0251974D01*
X0392130Y0252090D01*
X0391141D01*
X0388865Y0254365D01*
X0388468Y0254630D01*
X0388000Y0254724D01*
X0386907D01*
X0383290Y0258340D01*
X0382893Y0258605D01*
X0382425Y0258698D01*
X0381562D01*
X0381055Y0259317D01*
X0381119Y0259642D01*
X0380943Y0260529D01*
X0380440Y0261282D01*
X0379688Y0261785D01*
X0378800Y0261961D01*
D02*
G37*
G36*
X0304985Y0257225D02*
X0301442D01*
X0300861Y0257110D01*
X0300369Y0256781D01*
X0300041Y0256289D01*
X0299925Y0255709D01*
Y0254134D01*
X0300041Y0253554D01*
X0300369Y0253062D01*
X0300670Y0252861D01*
Y0252061D01*
X0300369Y0251860D01*
X0300041Y0251368D01*
X0299925Y0250787D01*
Y0249213D01*
X0300041Y0248632D01*
X0300369Y0248140D01*
X0300861Y0247812D01*
X0301442Y0247696D01*
X0304985D01*
X0305565Y0247812D01*
X0306057Y0248140D01*
X0306647Y0248198D01*
X0308811Y0246035D01*
D01*
X0308811D01*
X0308811Y0246035D01*
X0308811Y0246035D01*
X0308811D01*
D01*
X0308811D01*
X0308811Y0246035D01*
Y0246035D01*
X0308811Y0246035D01*
Y0246035D01*
X0309208Y0245770D01*
X0309676Y0245676D01*
X0312315D01*
X0312660Y0245160D01*
X0313412Y0244657D01*
X0314300Y0244481D01*
X0315188Y0244657D01*
X0315940Y0245160D01*
X0316443Y0245912D01*
X0316619Y0246800D01*
X0316443Y0247688D01*
X0315940Y0248440D01*
X0315188Y0248943D01*
X0314300Y0249119D01*
X0313865Y0249033D01*
X0313299Y0249599D01*
X0313319Y0249700D01*
X0313143Y0250588D01*
X0312640Y0251340D01*
X0311888Y0251843D01*
X0311000Y0252019D01*
X0310112Y0251843D01*
X0309558Y0251472D01*
X0306502Y0254528D01*
Y0255521D01*
X0306502Y0255525D01*
Y0255709D01*
X0306386Y0256289D01*
X0306057Y0256781D01*
X0305565Y0257110D01*
X0304985Y0257225D01*
D02*
G37*
G36*
X0344530Y0252090D02*
X0342955D01*
X0342375Y0251974D01*
X0341883Y0251646D01*
X0341682Y0251345D01*
X0340882D01*
X0340681Y0251646D01*
X0340189Y0251974D01*
X0339609Y0252090D01*
X0338034D01*
X0337454Y0251974D01*
X0336962Y0251646D01*
X0336761Y0251345D01*
X0335961D01*
X0335760Y0251646D01*
X0335268Y0251974D01*
X0334687Y0252090D01*
X0333113D01*
X0332532Y0251974D01*
X0332040Y0251646D01*
X0331839Y0251345D01*
X0331039D01*
X0330838Y0251646D01*
X0330346Y0251974D01*
X0329766Y0252090D01*
X0328191D01*
X0327611Y0251974D01*
X0327119Y0251646D01*
X0326790Y0251154D01*
X0326675Y0250573D01*
Y0247030D01*
X0326790Y0246450D01*
X0327119Y0245958D01*
X0327611Y0245629D01*
X0328191Y0245513D01*
X0329356D01*
X0331377Y0243493D01*
Y0239066D01*
X0330802Y0238682D01*
X0330299Y0237929D01*
X0330122Y0237042D01*
X0330299Y0236154D01*
X0330802Y0235402D01*
X0331554Y0234899D01*
X0332442Y0234722D01*
X0333329Y0234899D01*
X0334082Y0235402D01*
X0334585Y0236154D01*
D01*
D01*
X0335212Y0236257D01*
Y0236257D01*
X0335212Y0236257D01*
X0336100Y0236081D01*
X0336988Y0236257D01*
X0337629Y0236686D01*
X0338414Y0236530D01*
X0338460Y0236460D01*
X0339212Y0235957D01*
X0340100Y0235781D01*
X0340988Y0235957D01*
X0341740Y0236460D01*
X0341740Y0236460D01*
Y0236460D01*
X0342360Y0236660D01*
X0342360Y0236660D01*
D01*
X0343112Y0236157D01*
X0344000Y0235981D01*
X0344888Y0236157D01*
X0345640Y0236660D01*
X0346143Y0237412D01*
X0346319Y0238300D01*
X0346143Y0239188D01*
X0345640Y0239940D01*
X0344888Y0240443D01*
X0344000Y0240619D01*
X0343642Y0240548D01*
X0343023Y0241056D01*
Y0245193D01*
X0343344Y0245513D01*
X0344530D01*
X0345110Y0245629D01*
X0345602Y0245958D01*
X0345931Y0246450D01*
X0346046Y0247030D01*
Y0250573D01*
X0345931Y0251154D01*
X0345602Y0251646D01*
X0345110Y0251974D01*
X0344530Y0252090D01*
D02*
G37*
G36*
X0405331Y0289682D02*
X0404366Y0289490D01*
X0403549Y0288943D01*
X0403003Y0288126D01*
X0402811Y0287161D01*
X0402858Y0286921D01*
X0402293Y0286355D01*
X0401915Y0286431D01*
X0399513D01*
X0399130Y0286507D01*
X0391059D01*
X0390594Y0286414D01*
X0390486Y0286342D01*
X0389702Y0286498D01*
X0389540Y0286740D01*
X0388788Y0287243D01*
X0387900Y0287419D01*
X0387012Y0287243D01*
X0386260Y0286740D01*
X0385757Y0285988D01*
X0385581Y0285100D01*
X0385757Y0284212D01*
X0385773Y0284188D01*
X0385396Y0283483D01*
X0383146D01*
Y0282823D01*
X0383100D01*
X0382632Y0282730D01*
X0382235Y0282465D01*
X0379593Y0279823D01*
X0378900D01*
X0378432Y0279730D01*
X0378035Y0279465D01*
X0375558Y0276988D01*
X0375400Y0277019D01*
X0374512Y0276843D01*
X0373760Y0276340D01*
X0373257Y0275588D01*
X0373081Y0274700D01*
X0373257Y0273812D01*
X0373760Y0273060D01*
X0374512Y0272557D01*
X0375400Y0272381D01*
X0375483Y0272397D01*
X0375881Y0272000D01*
X0376057Y0271112D01*
X0376560Y0270360D01*
X0377312Y0269857D01*
X0378200Y0269681D01*
X0379088Y0269857D01*
X0379840Y0270360D01*
X0380118Y0270777D01*
X0381100D01*
X0381568Y0270870D01*
X0381965Y0271135D01*
X0384407Y0273576D01*
X0385882D01*
X0386160Y0273160D01*
X0386912Y0272657D01*
X0387800Y0272481D01*
X0388688Y0272657D01*
X0389440Y0273160D01*
X0389748Y0273621D01*
X0390532Y0273777D01*
X0390594Y0273735D01*
X0391059Y0273643D01*
X0399130D01*
X0399595Y0273735D01*
X0399989Y0273999D01*
X0400253Y0274393D01*
X0400345Y0274858D01*
Y0275843D01*
X0400253Y0276308D01*
X0399989Y0276702D01*
Y0277149D01*
X0400253Y0277543D01*
X0400345Y0278008D01*
Y0278992D01*
X0400253Y0279457D01*
X0399989Y0279852D01*
Y0280298D01*
X0400253Y0280693D01*
X0400345Y0281158D01*
Y0282142D01*
X0400253Y0282607D01*
X0399989Y0283001D01*
X0400040Y0283168D01*
X0401239D01*
X0401771Y0282636D01*
X0402300Y0282283D01*
X0402925Y0282158D01*
X0411990D01*
X0412614Y0282283D01*
X0413143Y0282636D01*
X0413143Y0282636D01*
X0413143Y0282636D01*
X0414234Y0283727D01*
X0414888Y0283857D01*
X0415640Y0284360D01*
X0416143Y0285112D01*
X0416319Y0286000D01*
X0416143Y0286888D01*
X0415640Y0287640D01*
X0414888Y0288143D01*
X0414000Y0288319D01*
X0413112Y0288143D01*
X0412360Y0287640D01*
X0411857Y0286888D01*
X0411681Y0286000D01*
X0408770Y0285421D01*
X0407989D01*
X0407612Y0286127D01*
X0407659Y0286197D01*
X0407851Y0287161D01*
X0407659Y0288126D01*
X0407113Y0288943D01*
X0406295Y0289490D01*
X0405331Y0289682D01*
D02*
G37*
G36*
X0409000Y0316519D02*
X0408112Y0316343D01*
X0407360Y0315840D01*
X0406857Y0315088D01*
X0406681Y0314200D01*
X0406857Y0313312D01*
X0407360Y0312560D01*
X0408112Y0312057D01*
X0409000Y0311881D01*
X0409491Y0311978D01*
X0410777Y0310693D01*
Y0309407D01*
X0410313Y0308943D01*
X0408435D01*
X0408091Y0308875D01*
X0407434D01*
X0406853Y0308759D01*
X0406361Y0308431D01*
X0406161Y0308130D01*
X0405361D01*
X0405160Y0308431D01*
X0404668Y0308759D01*
X0404087Y0308875D01*
X0402513D01*
X0401932Y0308759D01*
X0401440Y0308431D01*
X0401112Y0307939D01*
X0400996Y0307358D01*
Y0304103D01*
X0399944Y0303051D01*
X0397201D01*
X0396693Y0303670D01*
X0396719Y0303800D01*
X0396543Y0304688D01*
X0396040Y0305440D01*
X0395288Y0305943D01*
X0394400Y0306119D01*
X0393512Y0305943D01*
X0392760Y0305440D01*
X0392257Y0304688D01*
X0392081Y0303800D01*
X0392257Y0302912D01*
X0392760Y0302160D01*
X0393512Y0301657D01*
X0394400Y0301481D01*
X0394837Y0301568D01*
X0395442Y0300962D01*
Y0300962D01*
D01*
Y0300962D01*
X0395442Y0300962D01*
D01*
D01*
X0395442D01*
X0395442Y0300962D01*
Y0300962D01*
X0395442Y0300962D01*
Y0300962D01*
X0395839Y0300697D01*
X0396307Y0300604D01*
X0400451D01*
X0400919Y0300697D01*
X0401316Y0300962D01*
X0401316Y0300962D01*
X0401316Y0300962D01*
X0402652Y0302298D01*
X0404087D01*
X0404668Y0302414D01*
X0405160Y0302743D01*
X0405361Y0303043D01*
X0406161D01*
X0406361Y0302743D01*
X0406853Y0302414D01*
X0407434Y0302298D01*
X0409009D01*
X0409589Y0302414D01*
X0410081Y0302743D01*
X0410410Y0303235D01*
X0410525Y0303815D01*
Y0303957D01*
X0411264Y0304263D01*
X0411943Y0303585D01*
X0412160Y0303260D01*
X0412912Y0302757D01*
X0413800Y0302581D01*
X0414688Y0302757D01*
X0415440Y0303260D01*
X0415943Y0304012D01*
X0416119Y0304900D01*
X0415943Y0305788D01*
X0415440Y0306540D01*
X0415115Y0306757D01*
X0413586Y0308286D01*
X0413224Y0308528D01*
Y0308900D01*
Y0311200D01*
X0413130Y0311668D01*
X0412865Y0312065D01*
X0411222Y0313709D01*
X0411319Y0314200D01*
X0411143Y0315088D01*
X0410640Y0315840D01*
X0409888Y0316343D01*
X0409000Y0316519D01*
D02*
G37*
G36*
X0342258Y0313956D02*
X0341302Y0313766D01*
X0340492Y0313225D01*
X0339950Y0312414D01*
X0339760Y0311458D01*
X0339950Y0310502D01*
X0339999Y0310429D01*
X0339435Y0309865D01*
X0339170Y0309468D01*
X0339076Y0309000D01*
Y0298900D01*
X0339076Y0298900D01*
X0339076D01*
X0339170Y0298432D01*
X0339435Y0298035D01*
X0345751Y0291718D01*
Y0284525D01*
X0345844Y0284057D01*
X0346110Y0283660D01*
X0353235Y0276535D01*
X0353235Y0276535D01*
X0353235D01*
X0353235Y0276535D01*
X0353235D01*
X0353235Y0276535D01*
Y0276535D01*
Y0276535D01*
D01*
D01*
X0353235D01*
Y0276535D01*
X0353632Y0276270D01*
X0354100Y0276177D01*
X0356282D01*
X0356560Y0275760D01*
X0357312Y0275257D01*
X0358200Y0275081D01*
X0359088Y0275257D01*
X0359840Y0275760D01*
X0360343Y0276512D01*
X0360519Y0277400D01*
X0360343Y0278288D01*
X0359840Y0279040D01*
X0359088Y0279543D01*
X0358200Y0279719D01*
X0357312Y0279543D01*
X0356560Y0279040D01*
X0356282Y0278624D01*
X0354607D01*
X0348198Y0285032D01*
Y0292225D01*
X0348105Y0292693D01*
X0347840Y0293090D01*
X0341524Y0299407D01*
Y0308476D01*
X0342142Y0308983D01*
X0342258Y0308960D01*
X0343214Y0309150D01*
X0344024Y0309692D01*
X0344566Y0310502D01*
X0344756Y0311458D01*
X0344566Y0312414D01*
X0344024Y0313225D01*
X0343214Y0313766D01*
X0342258Y0313956D01*
D02*
G37*
G36*
X0350300Y0315719D02*
X0349412Y0315543D01*
X0348660Y0315040D01*
X0348157Y0314288D01*
X0347981Y0313400D01*
X0348157Y0312512D01*
X0348660Y0311760D01*
X0346909Y0309139D01*
X0345591Y0307822D01*
X0345100Y0307919D01*
X0344212Y0307743D01*
X0343460Y0307240D01*
X0342957Y0306488D01*
X0342781Y0305600D01*
X0342957Y0304712D01*
X0343460Y0303960D01*
X0344212Y0303457D01*
X0345100Y0303281D01*
X0345988Y0303457D01*
X0346740Y0303960D01*
X0347243Y0304712D01*
X0347419Y0305600D01*
X0347322Y0306091D01*
X0347922Y0306692D01*
X0348688Y0306460D01*
X0348757Y0306112D01*
X0349260Y0305360D01*
X0350012Y0304857D01*
X0350900Y0304681D01*
X0351317Y0304764D01*
X0351581Y0304500D01*
X0351757Y0303612D01*
X0352260Y0302860D01*
X0352677Y0302582D01*
Y0295542D01*
X0352677Y0295542D01*
X0352677D01*
X0352770Y0295074D01*
X0353035Y0294677D01*
X0366850Y0280862D01*
Y0280016D01*
X0366966Y0279436D01*
X0367295Y0278944D01*
X0367787Y0278615D01*
X0368367Y0278500D01*
X0373091D01*
X0373672Y0278615D01*
X0374164Y0278944D01*
X0374492Y0279436D01*
X0374608Y0280016D01*
Y0281591D01*
X0374492Y0282172D01*
X0374164Y0282664D01*
Y0283275D01*
X0374492Y0283767D01*
X0374608Y0284347D01*
Y0285922D01*
X0374492Y0286502D01*
X0374164Y0286994D01*
Y0287606D01*
X0374492Y0288098D01*
X0374608Y0288678D01*
Y0290253D01*
X0374492Y0290833D01*
X0374164Y0291325D01*
Y0291936D01*
X0374421Y0292322D01*
X0374900D01*
X0375466Y0292434D01*
X0375945Y0292755D01*
X0375945Y0292755D01*
X0375945Y0292755D01*
X0377337Y0294146D01*
X0378583D01*
D01*
X0378583D01*
X0378830Y0293898D01*
Y0293476D01*
X0383970D01*
Y0294567D01*
X0384246D01*
X0384811Y0294680D01*
X0385291Y0295000D01*
X0385291Y0295000D01*
X0385291Y0295000D01*
X0387414Y0297123D01*
X0388088Y0297257D01*
X0388840Y0297760D01*
X0389343Y0298512D01*
X0389519Y0299400D01*
X0389343Y0300288D01*
X0388840Y0301040D01*
X0388088Y0301543D01*
X0387200Y0301719D01*
X0386312Y0301543D01*
X0385560Y0301040D01*
X0385057Y0300288D01*
X0384881Y0299400D01*
X0384967Y0298967D01*
X0384348Y0298459D01*
X0383970Y0298616D01*
Y0298616D01*
X0383970Y0298616D01*
X0378830D01*
Y0297908D01*
X0378583D01*
Y0297908D01*
X0375017D01*
D01*
X0375017D01*
X0374608Y0298317D01*
Y0298914D01*
X0374492Y0299495D01*
X0374164Y0299987D01*
X0373672Y0300315D01*
X0373091Y0300431D01*
X0368367D01*
X0367787Y0300315D01*
X0367725Y0300274D01*
X0366949Y0300351D01*
X0366801Y0300499D01*
X0366740Y0300560D01*
D01*
X0366740Y0300560D01*
X0367243Y0301312D01*
X0367419Y0302200D01*
X0367243Y0303088D01*
X0366740Y0303840D01*
X0365988Y0304343D01*
Y0304343D01*
X0365988D01*
X0366061Y0304433D01*
X0366200Y0304460D01*
X0366200D01*
Y0304460D01*
X0366688Y0304557D01*
X0367255Y0304936D01*
X0367295Y0304928D01*
X0367295Y0304928D01*
Y0304928D01*
X0367787Y0304600D01*
X0368367Y0304484D01*
X0373091D01*
X0373672Y0304600D01*
X0374164Y0304928D01*
X0374492Y0305420D01*
X0374608Y0306001D01*
Y0307576D01*
X0374492Y0308156D01*
X0374164Y0308648D01*
Y0309259D01*
X0374492Y0309751D01*
X0374608Y0310332D01*
Y0311906D01*
X0374492Y0312487D01*
X0374164Y0312979D01*
X0373672Y0313307D01*
X0373091Y0313423D01*
X0368367D01*
X0367787Y0313307D01*
X0367295Y0312979D01*
X0366966Y0312487D01*
X0366878Y0312042D01*
X0365419D01*
X0364951Y0311949D01*
X0364554Y0311684D01*
X0363079Y0310209D01*
X0361965Y0309465D01*
X0357165Y0314265D01*
X0356768Y0314530D01*
X0356300Y0314623D01*
X0352218D01*
X0351940Y0315040D01*
X0351188Y0315543D01*
X0350300Y0315719D01*
D02*
G37*
G36*
X0294500Y0290919D02*
X0293612Y0290743D01*
X0292860Y0290240D01*
X0292357Y0289488D01*
X0292181Y0288600D01*
X0292357Y0287712D01*
X0292860Y0286960D01*
Y0286960D01*
X0292312Y0286843D01*
D01*
X0292312D01*
X0292312Y0286843D01*
X0291560Y0286340D01*
X0291057Y0285588D01*
X0290881Y0284700D01*
X0291057Y0283812D01*
X0291560Y0283060D01*
X0291791Y0282906D01*
X0291947Y0282121D01*
X0291657Y0281688D01*
X0291481Y0280800D01*
X0291657Y0279912D01*
X0292160Y0279160D01*
X0292912Y0278657D01*
X0293800Y0278481D01*
X0294688Y0278657D01*
X0295353Y0279102D01*
X0296170D01*
X0296402Y0278336D01*
X0295660Y0277840D01*
X0295157Y0277088D01*
X0294981Y0276200D01*
X0295157Y0275312D01*
X0295660Y0274560D01*
X0296412Y0274057D01*
X0297300Y0273881D01*
X0298188Y0274057D01*
X0298940Y0274560D01*
X0299443Y0275312D01*
X0299619Y0276200D01*
X0299522Y0276691D01*
X0300307Y0277477D01*
X0333200D01*
X0333668Y0277570D01*
X0334065Y0277835D01*
X0334065Y0277835D01*
X0334065Y0277835D01*
X0335874Y0279644D01*
X0336550Y0279510D01*
X0337437Y0279686D01*
X0338190Y0280189D01*
X0338692Y0280942D01*
X0338869Y0281829D01*
X0338692Y0282717D01*
X0338190Y0283469D01*
X0337437Y0283972D01*
X0337224Y0284014D01*
X0337219Y0284039D01*
X0337722Y0284791D01*
X0337898Y0285679D01*
X0337722Y0286566D01*
X0337219Y0287319D01*
X0336466Y0287822D01*
X0335579Y0287998D01*
X0334956Y0287874D01*
X0333565Y0289265D01*
X0333168Y0289530D01*
X0332700Y0289623D01*
X0328300D01*
X0327832Y0289530D01*
X0327435Y0289265D01*
X0325728Y0287558D01*
X0324962Y0287790D01*
X0324943Y0287888D01*
X0324440Y0288640D01*
X0323688Y0289143D01*
X0322800Y0289319D01*
X0321912Y0289143D01*
X0321160Y0288640D01*
X0320657Y0287888D01*
X0320481Y0287000D01*
X0320254Y0286723D01*
X0302507D01*
X0299865Y0289365D01*
X0299468Y0289630D01*
X0299000Y0289723D01*
X0296485D01*
X0296140Y0290240D01*
X0295388Y0290743D01*
X0294500Y0290919D01*
D02*
G37*
G36*
X0320100Y0319498D02*
X0319144Y0319308D01*
X0318334Y0318766D01*
X0317792Y0317956D01*
X0317602Y0317000D01*
X0317792Y0316044D01*
X0318334Y0315234D01*
X0319144Y0314692D01*
X0320100Y0314502D01*
X0320991Y0314679D01*
X0322276Y0313393D01*
Y0312696D01*
X0322276Y0312696D01*
X0322276D01*
X0322370Y0312228D01*
X0322635Y0311831D01*
X0325631Y0308835D01*
X0326028Y0308570D01*
X0326279Y0308520D01*
X0326200Y0307723D01*
X0323054D01*
X0323008Y0307956D01*
X0322466Y0308766D01*
X0321656Y0309308D01*
X0320700Y0309498D01*
X0319744Y0309308D01*
X0318934Y0308766D01*
X0318392Y0307956D01*
X0318202Y0307000D01*
X0318392Y0306044D01*
X0318934Y0305234D01*
X0319744Y0304692D01*
X0320700Y0304502D01*
X0321656Y0304692D01*
X0322466Y0305234D01*
X0322495Y0305276D01*
X0331200D01*
X0331668Y0305370D01*
X0332065Y0305635D01*
X0332065Y0305635D01*
X0332065Y0305635D01*
X0333660Y0307229D01*
X0334300Y0307102D01*
X0335256Y0307292D01*
X0336066Y0307834D01*
X0336608Y0308644D01*
X0336798Y0309600D01*
X0336608Y0310556D01*
X0336066Y0311366D01*
X0335256Y0311908D01*
X0334300Y0312098D01*
X0333344Y0311908D01*
X0332534Y0311366D01*
X0332183Y0310842D01*
X0331383D01*
X0330966Y0311466D01*
X0330156Y0312008D01*
X0329200Y0312198D01*
X0328244Y0312008D01*
X0327434Y0311466D01*
X0327394Y0311407D01*
X0326598Y0311328D01*
X0324724Y0313203D01*
Y0313900D01*
X0324630Y0314368D01*
X0324365Y0314765D01*
X0322520Y0316610D01*
X0322598Y0317000D01*
X0322408Y0317956D01*
X0321866Y0318766D01*
X0321056Y0319308D01*
X0320100Y0319498D01*
D02*
G37*
%LPD*%
D11*
X0376800Y0299373D02*
D03*
Y0296027D02*
D03*
D14*
X0384927Y0278500D02*
D03*
X0388273D02*
D03*
X0385027Y0281700D02*
D03*
X0388373D02*
D03*
D16*
X0381400Y0296046D02*
D03*
Y0301754D02*
D03*
D23*
X0303213Y0250000D02*
D03*
Y0254921D02*
D03*
D24*
X0292387Y0235039D02*
D03*
Y0264961D02*
D03*
D26*
X0378200Y0272000D02*
X0381100D01*
X0383900Y0274800D01*
X0387800D01*
X0382700Y0278500D02*
X0384927D01*
X0379988Y0275788D02*
X0382700Y0278500D01*
X0379988Y0275057D02*
Y0275788D01*
X0394994Y0278400D02*
X0395094Y0278500D01*
X0387848Y0278400D02*
X0394994D01*
X0388373Y0281650D02*
X0395094D01*
X0354100Y0277400D02*
X0358200D01*
X0346975Y0284525D02*
X0354100Y0277400D01*
X0346975Y0284525D02*
Y0292225D01*
X0340300Y0298900D02*
X0346975Y0292225D01*
X0340300Y0298900D02*
Y0309000D01*
X0342100Y0310800D01*
X0299096Y0280400D02*
X0330000D01*
X0299800Y0278700D02*
X0333200D01*
X0330000Y0280400D02*
X0332700Y0283100D01*
X0328300Y0288400D02*
X0332700D01*
X0343202Y0247102D02*
X0344800D01*
X0341800Y0245700D02*
X0343202Y0247102D01*
X0341800Y0240400D02*
Y0245700D01*
Y0240400D02*
X0343900Y0238300D01*
X0344800D01*
X0377200Y0268900D02*
X0393993D01*
X0394094Y0269001D01*
Y0264605D02*
Y0269001D01*
Y0264605D02*
X0394488Y0264212D01*
Y0257780D02*
Y0264212D01*
X0374400Y0266100D02*
X0377200Y0268900D01*
X0371380Y0266100D02*
X0374400D01*
X0370040Y0267440D02*
X0371380Y0266100D01*
X0380967Y0257475D02*
X0382425D01*
X0386400Y0253500D01*
X0388000D01*
X0390800Y0250700D01*
Y0250200D02*
Y0250700D01*
X0378800Y0259642D02*
X0380967Y0257475D01*
X0368642Y0280800D02*
X0369333D01*
X0353900Y0295542D02*
X0368642Y0280800D01*
X0353900Y0295542D02*
Y0305600D01*
X0368773Y0285000D02*
X0369464D01*
X0356700Y0297073D02*
X0368773Y0285000D01*
X0356700Y0297073D02*
Y0305624D01*
X0355024Y0307300D02*
X0356700Y0305624D01*
X0350900Y0307300D02*
X0355024D01*
X0368804Y0289300D02*
X0369495D01*
X0359000Y0299104D02*
X0368804Y0289300D01*
X0359000Y0299104D02*
Y0307000D01*
X0355800Y0310200D02*
X0359000Y0307000D01*
X0349700Y0310200D02*
X0355800D01*
X0345100Y0305600D02*
X0349700Y0310200D01*
X0386421Y0248802D02*
Y0249779D01*
X0381350Y0254850D02*
X0386421Y0249779D01*
X0373400Y0252900D02*
X0373500D01*
X0381500Y0248802D02*
Y0249711D01*
X0378651Y0252561D02*
X0381500Y0249711D01*
X0378539Y0252561D02*
X0378651D01*
X0378400Y0252700D02*
X0378539Y0252561D01*
X0378400Y0252700D02*
Y0253800D01*
X0333000Y0248700D02*
X0336100Y0245600D01*
X0333000Y0248700D02*
Y0249102D01*
X0336100Y0238400D02*
Y0245600D01*
X0328079Y0248521D02*
X0332600Y0244000D01*
X0328079Y0248521D02*
Y0248802D01*
X0332300Y0236200D02*
X0332600Y0236500D01*
Y0244000D01*
X0333200Y0278700D02*
X0336329Y0281829D01*
X0326100Y0282100D02*
X0329600Y0285600D01*
X0296851Y0284075D02*
X0298826Y0282100D01*
X0323700Y0283800D02*
X0328300Y0288400D01*
X0298425Y0285875D02*
X0300500Y0283800D01*
X0323700D01*
X0298826Y0282100D02*
X0326100D01*
X0299021Y0280325D02*
X0299096Y0280400D01*
X0297300Y0276200D02*
X0299800Y0278700D01*
X0321500Y0285500D02*
X0322800Y0286800D01*
X0302000Y0285500D02*
X0321500D01*
X0299000Y0288500D02*
X0302000Y0285500D01*
X0293700Y0288500D02*
X0299000D01*
X0294475Y0280325D02*
X0299021D01*
X0296051Y0285875D02*
X0298425D01*
X0335600Y0285500D02*
X0336300D01*
X0332700Y0288400D02*
X0335600Y0285500D01*
X0295976Y0285800D02*
X0296051Y0285875D01*
X0294700Y0285800D02*
X0295976D01*
X0293200Y0284300D02*
X0294700Y0285800D01*
X0336329Y0281829D02*
X0336550D01*
X0293900Y0280900D02*
X0294475Y0280325D01*
X0324215Y0267415D02*
X0324400Y0267230D01*
Y0265200D02*
Y0267230D01*
X0315300Y0256100D02*
X0324400Y0265200D01*
X0363361Y0238275D02*
X0403203D01*
X0354103D02*
X0363361D01*
X0319900Y0306500D02*
X0331200D01*
X0334300Y0309600D01*
X0335200Y0309400D02*
X0335400Y0309600D01*
X0337100Y0302500D02*
X0338600D01*
X0365193Y0240107D02*
Y0258890D01*
X0387739Y0314613D02*
X0391922Y0318796D01*
X0363025Y0308425D02*
X0365419Y0310819D01*
X0363025Y0304325D02*
Y0308425D01*
X0363000Y0304300D02*
X0363025Y0304325D01*
X0356300Y0313400D02*
X0361100Y0308600D01*
Y0302200D02*
Y0308600D01*
X0365288Y0306688D02*
X0370929D01*
X0361100Y0302200D02*
X0365200Y0298100D01*
X0363000Y0304300D02*
X0365100Y0302200D01*
X0365200Y0298100D02*
X0369356D01*
X0350300Y0313400D02*
X0356300D01*
X0331000D02*
X0338700D01*
X0293187Y0265561D02*
X0300939D01*
X0304436Y0262064D01*
X0310240D01*
X0301139Y0235639D02*
X0303775Y0238275D01*
X0293187Y0235639D02*
X0301139D01*
X0293187D02*
Y0265561D01*
X0394488Y0257780D02*
X0414200D01*
X0365611Y0259308D02*
Y0263011D01*
X0370040Y0267440D01*
Y0272536D01*
X0365419Y0310819D02*
X0371129D01*
X0303775Y0238275D02*
X0304475D01*
X0324925D01*
X0293187Y0265561D02*
Y0275613D01*
X0289400Y0279400D02*
X0293187Y0275613D01*
X0289400Y0311400D02*
X0297544Y0319544D01*
X0311871D01*
X0349025Y0238275D02*
X0354103D01*
X0320325D02*
X0321275D01*
X0321908Y0259308D02*
X0329194D01*
X0304013Y0238736D02*
X0304475Y0238275D01*
X0373500Y0252900D02*
X0376579Y0249821D01*
Y0248802D02*
Y0249821D01*
X0397464Y0249102D02*
X0400748D01*
X0406303Y0237975D02*
X0411275D01*
X0406303D02*
Y0246797D01*
X0403998Y0249102D02*
X0406303Y0246797D01*
X0400748Y0249102D02*
X0403998D01*
X0357803Y0237975D02*
X0358900Y0239072D01*
X0349892Y0259308D02*
X0358900Y0250300D01*
X0329194Y0259308D02*
X0349892D01*
X0358703Y0237975D02*
Y0250103D01*
X0348600Y0238700D02*
X0349025Y0238275D01*
X0348600Y0238700D02*
Y0247965D01*
X0347764Y0248802D02*
X0348600Y0247965D01*
X0324925Y0238275D02*
X0330500Y0232700D01*
X0343450D01*
X0349025Y0238275D01*
X0319400Y0252000D02*
X0323093D01*
X0319400D02*
Y0256800D01*
X0321908Y0259308D01*
X0293900Y0280900D02*
Y0281124D01*
X0320650Y0316750D02*
X0323500Y0313900D01*
Y0312696D02*
Y0313900D01*
Y0312696D02*
X0326496Y0309700D01*
X0329200D01*
X0293900Y0280900D02*
Y0281124D01*
X0297300Y0276200D02*
X0297400Y0276100D01*
X0305279Y0254021D02*
Y0255521D01*
Y0254021D02*
X0309200Y0250100D01*
X0310600D01*
X0311000Y0249700D01*
X0303213Y0250000D02*
X0306576D01*
X0309676Y0246900D01*
X0313459D01*
X0314300Y0246059D01*
X0337900Y0249102D02*
X0338800Y0248202D01*
Y0239700D02*
Y0248202D01*
Y0239700D02*
X0340500Y0238000D01*
X0384727Y0281600D02*
X0385027Y0281900D01*
X0388201Y0284799D02*
X0395094D01*
X0416142Y0271942D02*
X0417975Y0273775D01*
X0411575Y0238275D02*
X0414200Y0240900D01*
Y0245813D01*
X0416142Y0247755D01*
Y0257780D01*
Y0271942D01*
X0416500Y0290900D02*
X0417975Y0289425D01*
Y0273775D02*
Y0289425D01*
X0403300Y0304677D02*
Y0305587D01*
X0400451Y0301828D02*
X0403300Y0304677D01*
X0396307Y0301828D02*
X0400451D01*
X0394400Y0303734D02*
X0396307Y0301828D01*
X0394400Y0303734D02*
Y0303800D01*
X0409000Y0314200D02*
X0412000Y0311200D01*
Y0308900D02*
Y0311200D01*
Y0306700D02*
Y0308900D01*
X0410700Y0307600D02*
X0412000Y0308900D01*
X0410700Y0306700D02*
Y0307600D01*
X0376000Y0275700D02*
X0378900Y0278600D01*
X0380100D01*
X0383100Y0281600D01*
X0384727D01*
D27*
X0338100Y0290289D02*
Y0312800D01*
Y0290289D02*
X0345200Y0283189D01*
Y0282100D02*
Y0283189D01*
X0338100Y0312800D02*
X0338700Y0313400D01*
X0344549Y0319249D01*
X0360887D01*
X0376987Y0314613D02*
X0387739D01*
X0372351Y0319249D02*
X0376987Y0314613D01*
X0360887Y0319249D02*
X0372351D01*
X0345200Y0276200D02*
Y0282100D01*
X0354200Y0273100D01*
X0360100D01*
X0362400Y0275400D01*
Y0278600D01*
X0350600Y0290400D02*
X0362400Y0278600D01*
X0350600Y0290400D02*
Y0298800D01*
X0348500Y0300900D02*
X0350600Y0298800D01*
X0370729Y0293796D02*
X0370733Y0293800D01*
X0370729Y0302457D02*
X0373242D01*
X0376200Y0299500D01*
X0378000D01*
X0380800Y0302300D01*
D28*
X0370733Y0293800D02*
X0374900D01*
X0376400Y0295300D01*
X0376800Y0296027D02*
X0382127D01*
X0381400Y0296046D02*
X0384246D01*
X0387400Y0299200D01*
D29*
X0395094Y0284799D02*
X0401915D01*
X0402925Y0283790D01*
X0411990D01*
X0414100Y0285900D01*
D30*
X0394488Y0292820D02*
X0416142D01*
X0377200Y0285100D02*
X0382400Y0290300D01*
X0391500D01*
X0391922Y0318796D02*
X0397779D01*
X0398779Y0319796D02*
X0412478D01*
X0397779Y0318796D02*
X0398779Y0319796D01*
X0417661Y0303300D02*
Y0314613D01*
X0412478Y0319796D02*
X0417661Y0314613D01*
X0416142Y0291258D02*
X0416500Y0290900D01*
X0416142Y0291258D02*
Y0301781D01*
X0417661Y0303300D01*
X0412000Y0306700D02*
X0413800Y0304900D01*
X0408435Y0306700D02*
X0412000D01*
X0408221Y0306487D02*
X0408435Y0306700D01*
D31*
X0405331Y0287161D02*
D03*
Y0269839D02*
D03*
D32*
X0387900Y0285100D02*
D03*
X0387800Y0274800D02*
D03*
X0385000Y0289900D02*
D03*
X0390900Y0288700D02*
D03*
X0420400Y0268100D02*
D03*
X0420500Y0241700D02*
D03*
X0411100Y0251700D02*
D03*
X0401300Y0239000D02*
D03*
X0398600Y0254900D02*
D03*
X0398400Y0233300D02*
D03*
X0386400Y0240700D02*
D03*
X0386000Y0232700D02*
D03*
X0380800Y0243600D02*
D03*
X0376200Y0239000D02*
D03*
X0387800Y0270100D02*
D03*
X0381500Y0263700D02*
D03*
X0378200Y0272000D02*
D03*
X0379700Y0283700D02*
D03*
X0380000Y0275700D02*
D03*
X0373000Y0302457D02*
D03*
X0375400Y0274700D02*
D03*
X0369200Y0262500D02*
D03*
X0370000Y0250100D02*
D03*
X0369100Y0241900D02*
D03*
X0371600Y0244500D02*
D03*
X0370900Y0319700D02*
D03*
X0357500Y0319900D02*
D03*
X0349800Y0285700D02*
D03*
X0341300Y0283200D02*
D03*
X0344200Y0285600D02*
D03*
X0353100Y0285700D02*
D03*
X0336550Y0281829D02*
D03*
X0329600Y0285600D02*
D03*
X0332700Y0283100D02*
D03*
X0324313Y0267317D02*
D03*
X0324800Y0275500D02*
D03*
X0335579Y0285679D02*
D03*
X0343100Y0253700D02*
D03*
X0348400Y0253800D02*
D03*
X0336700Y0253700D02*
D03*
X0327442Y0254558D02*
D03*
X0324400Y0251700D02*
D03*
X0326700Y0271500D02*
D03*
X0338100Y0320400D02*
D03*
X0376800Y0280900D02*
D03*
X0384100Y0259800D02*
D03*
X0373400Y0252900D02*
D03*
X0381200Y0254700D02*
D03*
X0358400Y0267000D02*
D03*
Y0260400D02*
D03*
Y0273100D02*
D03*
X0358300Y0254800D02*
D03*
X0365800Y0242200D02*
D03*
X0361700Y0247700D02*
D03*
X0363700Y0250800D02*
D03*
X0313100Y0240200D02*
D03*
X0306600Y0245600D02*
D03*
X0307400Y0262700D02*
D03*
X0313500Y0288400D02*
D03*
X0358200Y0277400D02*
D03*
X0365800Y0306700D02*
D03*
X0353900Y0304500D02*
D03*
X0414113Y0245900D02*
D03*
X0311000Y0249700D02*
D03*
X0365100Y0302200D02*
D03*
X0345100Y0305600D02*
D03*
X0340100Y0238100D02*
D03*
X0377300Y0253700D02*
D03*
X0378800Y0259642D02*
D03*
X0350900Y0307000D02*
D03*
X0350300Y0313400D02*
D03*
X0414000Y0286000D02*
D03*
X0388100Y0310500D02*
D03*
X0387200Y0299400D02*
D03*
X0297300Y0276200D02*
D03*
X0297200Y0283100D02*
D03*
X0293200Y0284700D02*
D03*
X0293800Y0280800D02*
D03*
X0332442Y0237042D02*
D03*
X0328800Y0303000D02*
D03*
X0332300Y0300100D02*
D03*
X0322900Y0292900D02*
D03*
X0325100Y0299600D02*
D03*
X0322800Y0287000D02*
D03*
X0318200Y0289900D02*
D03*
X0307600Y0289800D02*
D03*
X0303841Y0262659D02*
D03*
X0300000Y0291900D02*
D03*
X0294700Y0292700D02*
D03*
X0297600Y0321000D02*
D03*
X0288600Y0320900D02*
D03*
X0305300Y0321000D02*
D03*
X0318800Y0321300D02*
D03*
X0324000Y0319000D02*
D03*
X0301700Y0266600D02*
D03*
X0301300Y0275800D02*
D03*
X0294500Y0288600D02*
D03*
X0314300Y0246800D02*
D03*
X0302200Y0259000D02*
D03*
X0306900Y0238500D02*
D03*
X0312300Y0232900D02*
D03*
X0325400Y0232700D02*
D03*
X0337100Y0232500D02*
D03*
X0350000Y0232700D02*
D03*
X0322900Y0245900D02*
D03*
X0321000Y0241200D02*
D03*
X0319000Y0234200D02*
D03*
X0310800Y0262673D02*
D03*
X0304900Y0312400D02*
D03*
Y0301700D02*
D03*
X0318400Y0245700D02*
D03*
X0344000Y0238300D02*
D03*
X0347000Y0240800D02*
D03*
X0336100Y0238400D02*
D03*
X0373300Y0232700D02*
D03*
X0402000Y0273600D02*
D03*
X0407400Y0277900D02*
D03*
X0411300Y0262500D02*
D03*
X0418900Y0252800D02*
D03*
X0408100Y0232500D02*
D03*
X0411600Y0306700D02*
D03*
X0413800Y0304900D02*
D03*
X0394400Y0303800D02*
D03*
X0400100Y0310440D02*
D03*
X0409000Y0314200D02*
D03*
X0415100Y0309600D02*
D03*
X0411700Y0317400D02*
D03*
X0403200Y0318100D02*
D03*
X0395100Y0310400D02*
D03*
X0390000Y0303500D02*
D03*
X0407700Y0300500D02*
D03*
X0409900Y0296700D02*
D03*
X0420400Y0290300D02*
D03*
X0420200Y0281900D02*
D03*
X0398000Y0288500D02*
D03*
D33*
X0359300Y0250700D02*
D03*
X0320700Y0307000D02*
D03*
X0334300Y0309600D02*
D03*
X0320100Y0317000D02*
D03*
X0329200Y0309700D02*
D03*
X0342258Y0311458D02*
D03*
X0326800Y0236300D02*
D03*
X0376600Y0286700D02*
D03*
X0337000Y0302700D02*
D03*
X0313500Y0255100D02*
D03*
D34*
X0313400Y0242807D02*
D03*
D35*
Y0256193D02*
D03*
D36*
X0395488Y0260980D02*
D03*
Y0296020D02*
D03*
X0417142D02*
D03*
Y0260980D02*
D03*
D37*
X0395094Y0272201D02*
D03*
D38*
Y0275351D02*
D03*
Y0278500D02*
D03*
Y0281650D02*
D03*
Y0284799D02*
D03*
D39*
X0370040Y0272536D02*
D03*
D40*
X0365611Y0259308D02*
D03*
D41*
X0329194D02*
D03*
D42*
X0311871Y0319544D02*
D03*
X0310240Y0262064D02*
D03*
D43*
X0360887Y0319249D02*
D03*
D44*
X0330572D02*
D03*
D45*
X0370729Y0311119D02*
D03*
Y0306788D02*
D03*
Y0298127D02*
D03*
Y0293796D02*
D03*
Y0289465D02*
D03*
Y0285135D02*
D03*
Y0280804D02*
D03*
D46*
Y0302457D02*
D03*
D47*
X0376579Y0248802D02*
D03*
X0386421D02*
D03*
X0391342D02*
D03*
X0381500D02*
D03*
X0328979D02*
D03*
X0338821D02*
D03*
X0343742D02*
D03*
X0333900D02*
D03*
X0398379Y0305587D02*
D03*
X0403300D02*
D03*
X0408221D02*
D03*
D48*
X0366461Y0237975D02*
D03*
X0406303D02*
D03*
X0318861D02*
D03*
X0358703D02*
D03*
X0388339Y0316413D02*
D03*
X0418261D02*
D03*
D49*
X0396264Y0248802D02*
D03*
X0348664D02*
D03*
D50*
X0303213Y0245079D02*
D03*
D51*
X0344200Y0271500D02*
D03*
D52*
X0308278Y0258248D02*
D03*
M02*
