%FSAX25Y25*%
%MOIN*%
G70*
G01*
G75*
G04 Layer_Color=32896*
%ADD10C,0.05000*%
%ADD11R,0.02165X0.02362*%
%ADD12R,0.05906X0.01181*%
%ADD13R,0.01181X0.05906*%
%ADD14R,0.02362X0.02165*%
%ADD15R,0.04528X0.05512*%
%ADD16R,0.03740X0.03740*%
%ADD17R,0.02165X0.05709*%
%ADD18R,0.02165X0.05709*%
%ADD19R,0.04331X0.02559*%
%ADD20R,0.05118X0.05906*%
%ADD21R,0.02165X0.05709*%
%ADD22R,0.11024X0.02953*%
G04:AMPARAMS|DCode=23|XSize=31.5mil|YSize=51.18mil|CornerRadius=7.87mil|HoleSize=0mil|Usage=FLASHONLY|Rotation=90.000|XOffset=0mil|YOffset=0mil|HoleType=Round|Shape=RoundedRectangle|*
%AMROUNDEDRECTD23*
21,1,0.03150,0.03543,0,0,90.0*
21,1,0.01575,0.05118,0,0,90.0*
1,1,0.01575,0.01772,0.00787*
1,1,0.01575,0.01772,-0.00787*
1,1,0.01575,-0.01772,-0.00787*
1,1,0.01575,-0.01772,0.00787*
%
%ADD23ROUNDEDRECTD23*%
%ADD24R,0.11811X0.08268*%
%ADD25R,0.03150X0.03150*%
%ADD26C,0.01000*%
%ADD27C,0.02000*%
%ADD28C,0.01500*%
%ADD29C,0.01800*%
%ADD30C,0.03000*%
%ADD31C,0.02362*%
%ADD32C,0.03150*%
%ADD33C,0.03500*%
%ADD34R,0.06890X0.03347*%
G04:AMPARAMS|DCode=35|XSize=68.9mil|YSize=33.47mil|CornerRadius=8.37mil|HoleSize=0mil|Usage=FLASHONLY|Rotation=180.000|XOffset=0mil|YOffset=0mil|HoleType=Round|Shape=RoundedRectangle|*
%AMROUNDEDRECTD35*
21,1,0.06890,0.01673,0,0,180.0*
21,1,0.05217,0.03347,0,0,180.0*
1,1,0.01673,-0.02608,0.00837*
1,1,0.01673,0.02608,0.00837*
1,1,0.01673,0.02608,-0.00837*
1,1,0.01673,-0.02608,-0.00837*
%
%ADD35ROUNDEDRECTD35*%
%ADD36R,0.09843X0.07874*%
%ADD37R,0.09055X0.01969*%
G04:AMPARAMS|DCode=38|XSize=19.69mil|YSize=90.55mil|CornerRadius=4.92mil|HoleSize=0mil|Usage=FLASHONLY|Rotation=270.000|XOffset=0mil|YOffset=0mil|HoleType=Round|Shape=RoundedRectangle|*
%AMROUNDEDRECTD38*
21,1,0.01969,0.08071,0,0,270.0*
21,1,0.00984,0.09055,0,0,270.0*
1,1,0.00984,-0.04035,-0.00492*
1,1,0.00984,-0.04035,0.00492*
1,1,0.00984,0.04035,0.00492*
1,1,0.00984,0.04035,-0.00492*
%
%ADD38ROUNDEDRECTD38*%
%ADD39R,0.06102X0.06299*%
%ADD40R,0.11024X0.05512*%
%ADD41R,0.11811X0.05512*%
%ADD42R,0.07480X0.05512*%
%ADD43R,0.11024X0.06102*%
G04:AMPARAMS|DCode=44|XSize=61.02mil|YSize=82.68mil|CornerRadius=15.26mil|HoleSize=0mil|Usage=FLASHONLY|Rotation=90.000|XOffset=0mil|YOffset=0mil|HoleType=Round|Shape=RoundedRectangle|*
%AMROUNDEDRECTD44*
21,1,0.06102,0.05217,0,0,90.0*
21,1,0.03051,0.08268,0,0,90.0*
1,1,0.03051,0.02608,0.01526*
1,1,0.03051,0.02608,-0.01526*
1,1,0.03051,-0.02608,-0.01526*
1,1,0.03051,-0.02608,0.01526*
%
%ADD44ROUNDEDRECTD44*%
G04:AMPARAMS|DCode=45|XSize=31.5mil|YSize=62.99mil|CornerRadius=7.87mil|HoleSize=0mil|Usage=FLASHONLY|Rotation=90.000|XOffset=0mil|YOffset=0mil|HoleType=Round|Shape=RoundedRectangle|*
%AMROUNDEDRECTD45*
21,1,0.03150,0.04724,0,0,90.0*
21,1,0.01575,0.06299,0,0,90.0*
1,1,0.01575,0.02362,0.00787*
1,1,0.01575,0.02362,-0.00787*
1,1,0.01575,-0.02362,-0.00787*
1,1,0.01575,-0.02362,0.00787*
%
%ADD45ROUNDEDRECTD45*%
%ADD46R,0.06299X0.03150*%
G04:AMPARAMS|DCode=47|XSize=31.5mil|YSize=51.18mil|CornerRadius=7.87mil|HoleSize=0mil|Usage=FLASHONLY|Rotation=180.000|XOffset=0mil|YOffset=0mil|HoleType=Round|Shape=RoundedRectangle|*
%AMROUNDEDRECTD47*
21,1,0.03150,0.03543,0,0,180.0*
21,1,0.01575,0.05118,0,0,180.0*
1,1,0.01575,-0.00787,0.01772*
1,1,0.01575,0.00787,0.01772*
1,1,0.01575,0.00787,-0.01772*
1,1,0.01575,-0.00787,-0.01772*
%
%ADD47ROUNDEDRECTD47*%
%ADD48R,0.08268X0.11811*%
%ADD49R,0.03150X0.05118*%
%ADD50R,0.05118X0.03150*%
%ADD51R,0.14800X0.13400*%
%ADD52R,0.01955X0.02104*%
%ADD53C,0.00787*%
%ADD54C,0.00984*%
%ADD55C,0.00984*%
%ADD56C,0.00500*%
%ADD57C,0.00700*%
D26*
X0311875Y0275300D02*
G03*
X0314875Y0278300I0000000J0003000D01*
G01*
Y0306300D02*
G03*
X0312375Y0308800I-0002500J0000000D01*
G01*
X0326400Y0254300D02*
X0332500D01*
X0324800Y0252700D02*
X0326400Y0254300D01*
X0324800Y0252700D02*
Y0254300D01*
Y0252700D02*
X0326400D01*
X0310723Y0241500D02*
X0316235D01*
X0310723Y0257500D02*
X0316235D01*
X0308400Y0243500D02*
Y0255311D01*
X0318400Y0243500D02*
Y0255311D01*
X0308558Y0243500D02*
X0318400D01*
X0308558Y0255311D02*
X0318400D01*
X0297445Y0315447D02*
X0309375D01*
X0297501Y0271513D02*
X0307343D01*
X0297445D02*
Y0315447D01*
X0336875Y0260300D02*
X0358375D01*
X0315375D02*
X0320875D01*
X0307375Y0265800D02*
Y0275300D01*
X0311875D01*
X0314875Y0278300D02*
Y0306300D01*
X0309375Y0308800D02*
X0312375D01*
X0309375D02*
Y0315447D01*
X0316375Y0319300D02*
X0324875D01*
X0336375D02*
X0353875D01*
X0368875Y0314300D02*
Y0319300D01*
X0367375D02*
X0368875D01*
Y0263300D02*
Y0267800D01*
Y0276800D02*
Y0277800D01*
X0371657Y0231184D02*
X0401185D01*
X0362130Y0244963D02*
Y0249294D01*
X0373547D01*
X0399217D02*
X0410634D01*
Y0244963D02*
Y0249294D01*
X0324058Y0231184D02*
X0353585D01*
X0314530Y0244963D02*
Y0249294D01*
X0325947D01*
X0351617D02*
X0363034D01*
Y0244963D02*
Y0249294D01*
X0384009Y0305095D02*
Y0309425D01*
Y0305095D02*
X0395426D01*
X0411174D02*
X0422591D01*
Y0309425D01*
X0393458Y0323205D02*
X0413142D01*
X0299375Y0230709D02*
X0303706D01*
Y0242126D01*
Y0257874D02*
Y0269291D01*
X0299375D02*
X0303706D01*
X0285595Y0240158D02*
Y0259842D01*
X0397000Y0316499D02*
Y0314000D01*
X0396500Y0313500D01*
X0395500D01*
X0395001Y0314000D01*
Y0316499D01*
X0392002Y0315999D02*
X0392501Y0316499D01*
X0393501D01*
X0394001Y0315999D01*
Y0315499D01*
X0393501Y0315000D01*
X0392501D01*
X0392002Y0314500D01*
Y0314000D01*
X0392501Y0313500D01*
X0393501D01*
X0394001Y0314000D01*
X0391002Y0316499D02*
Y0313500D01*
X0389502D01*
X0389003Y0314000D01*
Y0314500D01*
X0389502Y0315000D01*
X0391002D01*
X0389502D01*
X0389003Y0315499D01*
Y0315999D01*
X0389502Y0316499D01*
X0391002D01*
D53*
X0428756Y0259012D02*
Y0297988D01*
X0423638Y0259012D02*
X0428756D01*
X0401984D02*
X0410646D01*
X0401984Y0297988D02*
X0410646D01*
X0423638D02*
X0428756D01*
X0390961Y0266492D02*
Y0269642D01*
Y0287358D02*
Y0290508D01*
D54*
X0388894Y0284799D02*
G03*
X0388894Y0284799I-0000492J0000000D01*
G01*
D56*
X0283328Y0315410D02*
X0297445D01*
X0283328Y0271513D02*
X0297445D01*
X0301044Y0271473D02*
Y0315410D01*
X0283328Y0271473D02*
Y0315410D01*
X0382066Y0289233D02*
X0382399Y0288900D01*
Y0288233D01*
X0382066Y0287900D01*
X0380733D01*
X0380400Y0288233D01*
Y0288900D01*
X0380733Y0289233D01*
X0380400Y0289899D02*
Y0290566D01*
Y0290233D01*
X0382399D01*
X0382066Y0289899D01*
Y0291565D02*
X0382399Y0291899D01*
Y0292565D01*
X0382066Y0292898D01*
X0381733D01*
X0381400Y0292565D01*
Y0292232D01*
Y0292565D01*
X0381066Y0292898D01*
X0380733D01*
X0380400Y0292565D01*
Y0291899D01*
X0380733Y0291565D01*
X0377766Y0290133D02*
X0378099Y0289800D01*
Y0289133D01*
X0377766Y0288800D01*
X0376433D01*
X0376100Y0289133D01*
Y0289800D01*
X0376433Y0290133D01*
X0376100Y0290799D02*
Y0291466D01*
Y0291133D01*
X0378099D01*
X0377766Y0290799D01*
X0376100Y0293465D02*
X0378099D01*
X0377100Y0292465D01*
Y0293798D01*
X0360167Y0252866D02*
X0360500Y0253199D01*
X0361167D01*
X0361500Y0252866D01*
Y0252533D01*
X0361167Y0252200D01*
X0360500D01*
X0360167Y0251866D01*
Y0251533D01*
X0360500Y0251200D01*
X0361167D01*
X0361500Y0251533D01*
X0359501Y0251200D02*
Y0253199D01*
X0358501D01*
X0358168Y0252866D01*
Y0252200D01*
X0358501Y0251866D01*
X0359501D01*
X0357501Y0253199D02*
X0356835D01*
X0357168D01*
Y0251200D01*
X0357501D01*
X0356835D01*
X0354502D02*
X0355835D01*
X0354502Y0252533D01*
Y0252866D01*
X0354836Y0253199D01*
X0355502D01*
X0355835Y0252866D01*
X0382799Y0315900D02*
X0381466D01*
X0380800Y0316566D01*
X0381466Y0317233D01*
X0382799D01*
Y0317899D02*
Y0318566D01*
Y0318233D01*
X0380800D01*
Y0317899D01*
Y0318566D01*
Y0319566D02*
X0382799D01*
X0380800Y0320898D01*
X0382799D01*
X0407167Y0252866D02*
X0407500Y0253199D01*
X0408167D01*
X0408500Y0252866D01*
Y0252533D01*
X0408167Y0252200D01*
X0407500D01*
X0407167Y0251866D01*
Y0251533D01*
X0407500Y0251200D01*
X0408167D01*
X0408500Y0251533D01*
X0406501Y0251200D02*
Y0253199D01*
X0405501D01*
X0405168Y0252866D01*
Y0252200D01*
X0405501Y0251866D01*
X0406501D01*
X0404501Y0253199D02*
X0403835D01*
X0404168D01*
Y0251200D01*
X0404501D01*
X0403835D01*
X0402835D02*
X0402169D01*
X0402502D01*
Y0253199D01*
X0402835Y0252866D01*
X0307299Y0231800D02*
X0305633D01*
X0305300Y0232133D01*
Y0232800D01*
X0305633Y0233133D01*
X0307299D01*
X0305300Y0233799D02*
X0306633D01*
X0307299Y0234466D01*
X0306633Y0235132D01*
X0305300D01*
X0306300D01*
Y0233799D01*
X0305300Y0235799D02*
X0307299D01*
Y0236798D01*
X0306966Y0237132D01*
X0306300D01*
X0305966Y0236798D01*
Y0235799D01*
Y0236465D02*
X0305300Y0237132D01*
X0307299Y0237798D02*
Y0239131D01*
Y0238464D01*
X0305300D01*
Y0241130D02*
Y0239797D01*
X0306633Y0241130D01*
X0306966D01*
X0307299Y0240797D01*
Y0240131D01*
X0306966Y0239797D01*
X0382400Y0277300D02*
Y0279299D01*
X0381400D01*
X0381067Y0278966D01*
Y0278300D01*
X0381400Y0277966D01*
X0382400D01*
X0381734D02*
X0381067Y0277300D01*
X0380401Y0279299D02*
X0379068D01*
Y0278966D01*
X0380401Y0277633D01*
Y0277300D01*
X0382400Y0280800D02*
Y0282799D01*
X0381400D01*
X0381067Y0282466D01*
Y0281800D01*
X0381400Y0281466D01*
X0382400D01*
X0381734D02*
X0381067Y0280800D01*
X0379068Y0282799D02*
X0379734Y0282466D01*
X0380401Y0281800D01*
Y0281133D01*
X0380067Y0280800D01*
X0379401D01*
X0379068Y0281133D01*
Y0281466D01*
X0379401Y0281800D01*
X0380401D01*
D57*
X0388434Y0302883D02*
X0388850Y0303299D01*
X0389684D01*
X0390100Y0302883D01*
Y0301217D01*
X0389684Y0300800D01*
X0388850D01*
X0388434Y0301217D01*
Y0302050D01*
X0389267D01*
X0387601Y0300800D02*
Y0303299D01*
X0385935Y0300800D01*
Y0303299D01*
X0385102D02*
Y0300800D01*
X0383852D01*
X0383436Y0301217D01*
Y0302883D01*
X0383852Y0303299D01*
X0385102D01*
X0409100Y0301283D02*
X0408683Y0301699D01*
X0407850D01*
X0407434Y0301283D01*
Y0300866D01*
X0407850Y0300450D01*
X0408267D01*
X0407850D01*
X0407434Y0300033D01*
Y0299617D01*
X0407850Y0299200D01*
X0408683D01*
X0409100Y0299617D01*
X0406601Y0301699D02*
Y0300033D01*
X0405768Y0299200D01*
X0404935Y0300033D01*
Y0301699D01*
X0404102Y0301283D02*
X0403685Y0301699D01*
X0402852D01*
X0402435Y0301283D01*
Y0300866D01*
X0402852Y0300450D01*
X0403269D01*
X0402852D01*
X0402435Y0300033D01*
Y0299617D01*
X0402852Y0299200D01*
X0403685D01*
X0404102Y0299617D01*
X0419634Y0303199D02*
X0421300D01*
Y0301950D01*
X0420467Y0302366D01*
X0420050D01*
X0419634Y0301950D01*
Y0301116D01*
X0420050Y0300700D01*
X0420884D01*
X0421300Y0301116D01*
X0418801Y0303199D02*
Y0301533D01*
X0417968Y0300700D01*
X0417135Y0301533D01*
Y0303199D01*
X0348900Y0254400D02*
Y0258399D01*
X0346901D01*
X0346234Y0257732D01*
Y0256399D01*
X0346901Y0255733D01*
X0348900D01*
X0347567D02*
X0346234Y0254400D01*
X0342235Y0257732D02*
X0342902Y0258399D01*
X0344235D01*
X0344901Y0257732D01*
Y0257066D01*
X0344235Y0256399D01*
X0342902D01*
X0342235Y0255733D01*
Y0255066D01*
X0342902Y0254400D01*
X0344235D01*
X0344901Y0255066D01*
X0340903Y0258399D02*
X0338237D01*
X0339570D01*
Y0254400D01*
M02*
