M48
;Layer_Color=9474304
;FILE_FORMAT=2:5
INCH
;TYPE=PLATED
T1F00S00C0.01575
T2F00S00C0.01800
;TYPE=NON_PLATED
T3F00S00C0.03543
%
T01
X0319000Y0234200
X0325400Y0232700
X0332442Y0237042
X0336100Y0238400
X0340100Y0238100
X0344000Y0238300
X0347000Y0240800
X0350000Y0232700
X0337100Y0232500
X0336700Y0253700
X0343100
X0348400Y0253800
X0358300Y0254800
X0358400Y0260400
Y0267000
Y0273100
X0358200Y0277400
X0353100Y0285700
X0349800
X0344200Y0285600
X0341300Y0283200
X0336550Y0281829
X0335579Y0285679
X0332700Y0283100
X0329600Y0285600
X0322800Y0287000
X0322900Y0292900
X0318200Y0289900
X0313500Y0288400
X0325100Y0299600
X0328800Y0303000
X0332300Y0300100
X0345100Y0305600
X0350900Y0307000
X0353900Y0304500
X0365100Y0302200
X0365800Y0306700
X0373000Y0302457
X0387200Y0299400
X0390000Y0303500
X0394400Y0303800
X0395100Y0310400
X0400100Y0310440
X0388100Y0310500
X0385000Y0289900
X0390900Y0288700
X0387900Y0285100
X0379700Y0283700
X0376800Y0280900
X0375400Y0274700
X0378200Y0272000
X0380000Y0275700
X0387800Y0274800
Y0270100
X0381500Y0263700
X0384100Y0259800
X0378800Y0259642
X0381200Y0254700
X0377300Y0253700
X0373400Y0252900
X0370000Y0250100
X0363700Y0250800
X0361700Y0247700
X0365800Y0242200
X0369100Y0241900
X0371600Y0244500
X0380800Y0243600
X0386400Y0240700
X0386000Y0232700
X0373300
X0376200Y0239000
X0401300
X0398400Y0233300
X0408100Y0232500
X0414113Y0245900
X0411100Y0251700
X0418900Y0252800
X0420500Y0241700
X0420400Y0268100
X0420200Y0281900
X0420400Y0290300
X0414000Y0286000
X0407400Y0277900
X0402000Y0273600
X0398000Y0288500
X0409900Y0296700
X0407700Y0300500
X0411600Y0306700
X0413800Y0304900
X0415100Y0309600
X0411300Y0262500
X0398600Y0254900
X0369200Y0262500
X0327442Y0254558
X0324400Y0251700
X0322900Y0245900
X0318400Y0245700
X0314300Y0246800
X0313100Y0240200
X0321000Y0241200
X0324313Y0267317
X0326700Y0271500
X0324800Y0275500
X0301300Y0275800
X0297300Y0276200
X0297200Y0283100
X0293200Y0284700
X0293800Y0280800
X0294500Y0288600
X0294700Y0292700
X0300000Y0291900
X0307600Y0289800
X0304900Y0301700
Y0312400
X0301700Y0266600
X0303841Y0262659
X0307400Y0262700
X0310800Y0262673
X0302200Y0259000
X0306600Y0245600
X0306900Y0238500
X0312300Y0232900
X0311000Y0249700
X0305300Y0321000
X0297600
X0288600Y0320900
X0318800Y0321300
X0324000Y0319000
X0338100Y0320400
X0350300Y0313400
X0357500Y0319900
X0370900Y0319700
X0403200Y0318100
X0411700Y0317400
X0409000Y0314200
T02
X0326800Y0236300
X0313500Y0255100
X0359300Y0250700
X0376600Y0286700
X0337000Y0302700
X0334300Y0309600
X0329200Y0309700
X0320700Y0307000
X0342258Y0311458
X0320100Y0317000
T03
X0405331Y0269839
Y0287161
M30
